<?xml version="1.0" encoding="UTF-8"?><svg xmlns="http://www.w3.org/2000/svg" viewBox="0 0 760 380" preserveAspectRatio="xMidYMid meet"><rect x="40" y="150" width="80" height="170" rx="10" fill="#11365E"/><g fill="#F4F1E8" transform="translate(68.03,246.52)"><path transform="translate(0,0) scale(0.036,-0.036)" d="M475 700H592Q597 700 600.5 696.5Q604 693 604 688V12Q604 7 600.5 3.5Q597 0 592 0H479Q469 0 465 8L206 436Q204 439 202.0 438.5Q200 438 200 434L202 12Q202 7 198.5 3.5Q195 0 190 0H73Q68 0 64.5 3.5Q61 7 61 12V688Q61 693 64.5 696.5Q68 700 73 700H186Q196 700 200 692L458 266Q460 263 462.0 263.5Q464 264 464 268L463 688Q463 693 466.5 696.5Q470 700 475 700Z"/></g><rect x="140" y="90" width="80" height="230" rx="10" fill="#8E2A1C"/><g fill="#F4F1E8" transform="translate(169.47,216.52)"><path transform="translate(0,0) scale(0.036,-0.036)" d="M556 688V590Q556 585 552.5 581.5Q549 578 544 578H365Q360 578 360 573V12Q360 7 356.5 3.5Q353 0 348 0H231Q226 0 222.5 3.5Q219 7 219 12V573Q219 578 214 578H40Q35 578 31.5 581.5Q28 585 28 590V688Q28 693 31.5 696.5Q35 700 40 700H544Q549 700 552.5 696.5Q556 693 556 688Z"/></g><rect x="240" y="30" width="80" height="290" rx="10" fill="#4A6A1F"/><g fill="#F4F1E8" transform="translate(269.056,186.52)"><path transform="translate(0,0) scale(0.036,-0.036)" d="M47 235V466Q47 538 79.0 593.0Q111 648 170.0 678.0Q229 708 307 708Q384 708 442.5 679.5Q501 651 533.5 598.5Q566 546 566 477Q566 468 554 466L437 459H435Q425 459 425 470Q425 523 392.5 555.0Q360 587 307 587Q253 587 220.5 555.0Q188 523 188 470V229Q188 177 220.5 145.0Q253 113 307 113Q360 113 392.5 145.0Q425 177 425 229Q425 240 437 240L554 235Q559 235 562.5 232.0Q566 229 566 225Q566 156 533.5 103.0Q501 50 442.5 21.0Q384 -8 307 -8Q229 -8 170.0 22.5Q111 53 79.0 108.0Q47 163 47 235Z"/></g><line x1="355" y1="30" x2="355" y2="320" stroke="#7E8290" stroke-width="1.5" stroke-opacity="0.5"/><g fill="#9CA0AB" transform="translate(378,75)"><path transform="translate(0,0) scale(0.014,-0.014)" d="M48 167V533Q48 612 97.5 660.0Q147 708 228 708Q309 708 359.0 660.0Q409 612 409 532V490Q409 480 399 480H323Q313 480 313 490V534Q313 575 289.5 600.0Q266 625 228 625Q190 625 166.5 600.0Q143 575 143 534V166Q143 125 166.5 100.0Q190 75 228 75Q266 75 289.5 100.0Q313 125 313 166V276Q313 280 309 280H233Q223 280 223 290V352Q223 362 233 362H399Q409 362 409 352V167Q409 88 359.0 40.0Q309 -8 228 -8Q147 -8 97.5 40.0Q48 88 48 167Z"/><path transform="translate(10.398,0) scale(0.014,-0.014)" d="M328 8 236 306Q235 309 232 309H162Q158 309 158 305V10Q158 0 148 0H72Q62 0 62 10V690Q62 700 72 700H251Q302 700 341.0 675.0Q380 650 401.5 604.5Q423 559 423 501Q423 438 397.0 391.5Q371 345 326 324Q323 321 324 318L426 11L427 7Q427 0 418 0H340Q331 0 328 8ZM158 613V389Q158 385 162 385H236Q277 385 302.0 416.5Q327 448 327 500Q327 554 302.0 585.5Q277 617 236 617H162Q158 617 158 613Z"/><path transform="translate(20.740000000000002,0) scale(0.014,-0.014)" d="M57 190V690Q57 700 67 700H143Q153 700 153 690V180Q153 133 176.5 104.0Q200 75 238 75Q277 75 300.5 104.0Q324 133 324 180V690Q324 700 334 700H410Q420 700 420 690V190Q420 101 370.0 46.5Q320 -8 238 -8Q156 -8 106.5 46.5Q57 101 57 190Z"/><path transform="translate(31.418000000000003,0) scale(0.014,-0.014)" d="M422 500Q422 412 376.0 358.0Q330 304 255 304H161Q157 304 157 300V10Q157 0 147 0H71Q61 0 61 10V691Q61 701 71 701H250Q327 701 374.5 645.5Q422 590 422 500ZM326 498Q326 553 301.0 585.5Q276 618 235 618H161Q157 618 157 614V385Q157 381 161 381H235Q276 381 301.0 412.5Q326 444 326 498Z"/><path transform="translate(41.732,0) scale(0.014,-0.014)" d="M48 175V524Q48 607 98.0 657.5Q148 708 230 708Q313 708 363.5 657.5Q414 607 414 524V175Q414 92 363.5 42.0Q313 -8 230 -8Q148 -8 98.0 42.0Q48 92 48 175ZM318 171V529Q318 572 294.0 598.5Q270 625 230 625Q191 625 167.5 598.5Q144 572 144 529V171Q144 128 167.5 101.5Q191 75 230 75Q270 75 294.0 101.5Q318 128 318 171Z"/></g><g fill="#F4F1E8" transform="translate(378,215)"><path transform="translate(0,0) scale(0.13,-0.13)" d="M475 700H592Q597 700 600.5 696.5Q604 693 604 688V12Q604 7 600.5 3.5Q597 0 592 0H479Q469 0 465 8L206 436Q204 439 202.0 438.5Q200 438 200 434L202 12Q202 7 198.5 3.5Q195 0 190 0H73Q68 0 64.5 3.5Q61 7 61 12V688Q61 693 64.5 696.5Q68 700 73 700H186Q196 700 200 692L458 266Q460 263 462.0 263.5Q464 264 464 268L463 688Q463 693 466.5 696.5Q470 700 475 700Z"/><path transform="translate(88.45,0) scale(0.13,-0.13)" d="M556 688V590Q556 585 552.5 581.5Q549 578 544 578H365Q360 578 360 573V12Q360 7 356.5 3.5Q353 0 348 0H231Q226 0 222.5 3.5Q219 7 219 12V573Q219 578 214 578H40Q35 578 31.5 581.5Q28 585 28 590V688Q28 693 31.5 696.5Q35 700 40 700H544Q549 700 552.5 696.5Q556 693 556 688Z"/><path transform="translate(166.5,0) scale(0.13,-0.13)" d="M47 235V466Q47 538 79.0 593.0Q111 648 170.0 678.0Q229 708 307 708Q384 708 442.5 679.5Q501 651 533.5 598.5Q566 546 566 477Q566 468 554 466L437 459H435Q425 459 425 470Q425 523 392.5 555.0Q360 587 307 587Q253 587 220.5 555.0Q188 523 188 470V229Q188 177 220.5 145.0Q253 113 307 113Q360 113 392.5 145.0Q425 177 425 229Q425 240 437 240L554 235Q559 235 562.5 232.0Q566 229 566 225Q566 156 533.5 103.0Q501 50 442.5 21.0Q384 -8 307 -8Q229 -8 170.0 22.5Q111 53 79.0 108.0Q47 163 47 235Z"/></g></svg>