<?xml version="1.0" encoding="UTF-8"?><svg xmlns="http://www.w3.org/2000/svg" viewBox="0 0 760 380" preserveAspectRatio="xMidYMid meet"><rect x="40" y="150" width="80" height="170" rx="10" fill="#11365E"/><g fill="#F4F1E8" transform="translate(68.03,246.52)"><path transform="translate(0,0) scale(0.036,-0.036)" d="M475 700H592Q597 700 600.5 696.5Q604 693 604 688V12Q604 7 600.5 3.5Q597 0 592 0H479Q469 0 465 8L206 436Q204 439 202.0 438.5Q200 438 200 434L202 12Q202 7 198.5 3.5Q195 0 190 0H73Q68 0 64.5 3.5Q61 7 61 12V688Q61 693 64.5 696.5Q68 700 73 700H186Q196 700 200 692L458 266Q460 263 462.0 263.5Q464 264 464 268L463 688Q463 693 466.5 696.5Q470 700 475 700Z"/></g><rect x="140" y="90" width="80" height="230" rx="10" fill="none" stroke="#A8ACB6" stroke-width="2" stroke-opacity="0.55"/><g opacity="0.55" fill="#9A9A9A" transform="translate(169.47,216.52)"><path transform="translate(0,0) scale(0.036,-0.036)" d="M556 688V590Q556 585 552.5 581.5Q549 578 544 578H365Q360 578 360 573V12Q360 7 356.5 3.5Q353 0 348 0H231Q226 0 222.5 3.5Q219 7 219 12V573Q219 578 214 578H40Q35 578 31.5 581.5Q28 585 28 590V688Q28 693 31.5 696.5Q35 700 40 700H544Q549 700 552.5 696.5Q556 693 556 688Z"/></g><rect x="240" y="30" width="80" height="290" rx="10" fill="none" stroke="#A8ACB6" stroke-width="2" stroke-opacity="0.55"/><g opacity="0.55" fill="#9A9A9A" transform="translate(269.056,186.52)"><path transform="translate(0,0) scale(0.036,-0.036)" d="M47 235V466Q47 538 79.0 593.0Q111 648 170.0 678.0Q229 708 307 708Q384 708 442.5 679.5Q501 651 533.5 598.5Q566 546 566 477Q566 468 554 466L437 459H435Q425 459 425 470Q425 523 392.5 555.0Q360 587 307 587Q253 587 220.5 555.0Q188 523 188 470V229Q188 177 220.5 145.0Q253 113 307 113Q360 113 392.5 145.0Q425 177 425 229Q425 240 437 240L554 235Q559 235 562.5 232.0Q566 229 566 225Q566 156 533.5 103.0Q501 50 442.5 21.0Q384 -8 307 -8Q229 -8 170.0 22.5Q111 53 79.0 108.0Q47 163 47 235Z"/></g><line x1="355" y1="30" x2="355" y2="320" stroke="#A8ACB6" stroke-width="1.5" stroke-opacity="0.5"/><g fill="#7A7A7A" transform="translate(378,75)"><path transform="translate(0,0) scale(0.014,-0.014)" d="M354 700H429Q439 700 439 690V10Q439 0 429 0H343Q335 0 332 8L162 465Q161 467 159.0 466.5Q157 466 157 464L158 10Q158 0 148 0H72Q62 0 62 10V690Q62 700 72 700H157Q165 700 168 692L339 235Q340 232 342.0 232.5Q344 233 344 236V690Q344 700 354 700Z"/><path transform="translate(11.014,0) scale(0.014,-0.014)" d="M409 690V627Q409 617 399 617H268Q264 617 264 613V10Q264 0 254 0H178Q168 0 168 10V613Q168 617 164 617H40Q30 617 30 627V690Q30 700 40 700H399Q409 700 409 690Z"/><path transform="translate(21.16,0) scale(0.014,-0.014)" d="M48 173V528Q48 610 97.5 659.0Q147 708 228 708Q310 708 359.5 659.0Q409 610 409 528V512Q409 502 399 502L323 498Q313 498 313 508V534Q313 575 289.5 600.0Q266 625 228 625Q190 625 167.0 600.0Q144 575 144 534V166Q144 125 167.0 100.0Q190 75 228 75Q266 75 289.5 100.0Q313 125 313 166V192Q313 202 323 202L399 198Q409 198 409 188V173Q409 91 359.5 41.5Q310 -8 228 -8Q147 -8 97.5 41.5Q48 91 48 173Z"/><path transform="translate(38.288,0) scale(0.014,-0.014)" d="M387 617H162Q158 617 158 613V396Q158 392 162 392H300Q310 392 310 382V319Q310 309 300 309H162Q158 309 158 305V87Q158 83 162 83H387Q397 83 397 73V10Q397 0 387 0H72Q62 0 62 10V690Q62 700 72 700H387Q397 700 397 690V627Q397 617 387 617Z"/><path transform="translate(48.336,0) scale(0.014,-0.014)" d="M62 10V690Q62 700 72 700H236Q319 700 368.0 649.0Q417 598 417 511V189Q417 102 368.0 51.0Q319 0 236 0H72Q62 0 62 10ZM162 83 235 84Q273 84 296.0 113.5Q319 143 320 194V506Q320 557 297.0 587.0Q274 617 235 617H162Q158 617 158 613V87Q158 83 162 83Z"/><path transform="translate(58.902,0) scale(0.014,-0.014)" d="M57 190V690Q57 700 67 700H143Q153 700 153 690V180Q153 133 176.5 104.0Q200 75 238 75Q277 75 300.5 104.0Q324 133 324 180V690Q324 700 334 700H410Q420 700 420 690V190Q420 101 370.0 46.5Q320 -8 238 -8Q156 -8 106.5 46.5Q57 101 57 190Z"/><path transform="translate(69.58,0) scale(0.014,-0.014)" d="M48 173V528Q48 610 97.5 659.0Q147 708 228 708Q310 708 359.5 659.0Q409 610 409 528V512Q409 502 399 502L323 498Q313 498 313 508V534Q313 575 289.5 600.0Q266 625 228 625Q190 625 167.0 600.0Q144 575 144 534V166Q144 125 167.0 100.0Q190 75 228 75Q266 75 289.5 100.0Q313 125 313 166V192Q313 202 323 202L399 198Q409 198 409 188V173Q409 91 359.5 41.5Q310 -8 228 -8Q147 -8 97.5 41.5Q48 91 48 173Z"/><path transform="translate(79.908,0) scale(0.014,-0.014)" d="M325 9 303 124Q303 126 301.5 127.0Q300 128 298 128H135Q133 128 131.5 127.0Q130 126 130 124L109 9Q108 0 98 0H22Q17 0 14.5 3.0Q12 6 13 11L162 691Q164 700 173 700H262Q272 700 273 691L423 11V9Q423 0 414 0H336Q327 0 325 9ZM150 204H283Q286 204 286 208L218 563Q217 565 216.0 565.0Q215 565 214 563L147 208Q147 204 150 204Z"/><path transform="translate(90.012,0) scale(0.014,-0.014)" d="M399 502 323 498Q313 498 313 508V534Q313 575 289.5 600.0Q266 625 228 625Q190 625 167.0 600.0Q144 575 144 534V166Q144 125 167.0 100.0Q190 75 228 75Q266 75 289.5 100.0Q313 125 313 166V192Q313 202 323 202L399 198Q409 198 409 188V173Q409 101 370.5 53.5Q332 6 266 -5Q261 -7 264 -10Q304 -50 304 -102Q304 -109 302 -125Q294 -157 272.0 -171.0Q250 -185 221 -185Q201 -185 184 -180Q175 -177 176 -168L181 -136Q182 -127 193 -129Q197 -130 203 -130Q219 -130 229.5 -119.5Q240 -109 240 -88Q240 -49 195 -7Q194 -5 190 -5Q125 6 86.5 53.5Q48 101 48 173V528Q48 610 97.5 659.0Q147 708 228 708Q310 708 359.5 659.0Q409 610 409 528V512Q409 502 399 502Z"/><path transform="translate(100.34,0) scale(0.014,-0.014)" d="M325 9 303 124Q303 126 301.5 127.0Q300 128 298 128H135Q133 128 131.5 127.0Q130 126 130 124L109 9Q108 0 98 0H22Q17 0 14.5 3.0Q12 6 13 11L162 691Q164 700 173 700H262Q272 700 273 691L423 11V9Q423 0 414 0H336Q327 0 325 9ZM150 204H283Q286 204 286 208L218 563Q217 565 216.0 565.0Q215 565 214 563L147 208Q147 204 150 204ZM227 811Q222 814 213.5 820.0Q205 826 198.5 828.5Q192 831 184 831Q171 831 161.5 825.5Q152 820 142 805Q140 801 136.0 800.0Q132 799 128 802L100 822Q93 828 97 835Q110 865 131.0 880.0Q152 895 177 895Q193 895 207.0 889.0Q221 883 237 872Q241 870 249.0 864.0Q257 858 265.0 855.0Q273 852 281 852Q293 852 303.0 857.5Q313 863 322 878Q326 887 336 881L363 863Q367 860 367 854Q367 850 364 844Q349 816 326.0 803.5Q303 791 281 791Q268 791 256.5 796.0Q245 801 227 811Z"/><path transform="translate(110.444,0) scale(0.014,-0.014)" d="M48 175V524Q48 607 98.0 657.5Q148 708 230 708Q313 708 363.5 657.5Q414 607 414 524V175Q414 92 363.5 42.0Q313 -8 230 -8Q148 -8 98.0 42.0Q48 92 48 175ZM318 171V529Q318 572 294.0 598.5Q270 625 230 625Q191 625 167.5 598.5Q144 572 144 529V171Q144 128 167.5 101.5Q191 75 230 75Q270 75 294.0 101.5Q318 128 318 171Z"/></g><g fill="#11365E" transform="translate(378,215)"><path transform="translate(0,0) scale(0.13,-0.13)" d="M475 700H592Q597 700 600.5 696.5Q604 693 604 688V12Q604 7 600.5 3.5Q597 0 592 0H479Q469 0 465 8L206 436Q204 439 202.0 438.5Q200 438 200 434L202 12Q202 7 198.5 3.5Q195 0 190 0H73Q68 0 64.5 3.5Q61 7 61 12V688Q61 693 64.5 696.5Q68 700 73 700H186Q196 700 200 692L458 266Q460 263 462.0 263.5Q464 264 464 268L463 688Q463 693 466.5 696.5Q470 700 475 700Z"/><path transform="translate(88.45,0) scale(0.13,-0.13)" d="M556 688V590Q556 585 552.5 581.5Q549 578 544 578H365Q360 578 360 573V12Q360 7 356.5 3.5Q353 0 348 0H231Q226 0 222.5 3.5Q219 7 219 12V573Q219 578 214 578H40Q35 578 31.5 581.5Q28 585 28 590V688Q28 693 31.5 696.5Q35 700 40 700H544Q549 700 552.5 696.5Q556 693 556 688Z"/><path transform="translate(166.5,0) scale(0.13,-0.13)" d="M47 235V466Q47 538 79.0 593.0Q111 648 170.0 678.0Q229 708 307 708Q384 708 442.5 679.5Q501 651 533.5 598.5Q566 546 566 477Q566 468 554 466L437 459H435Q425 459 425 470Q425 523 392.5 555.0Q360 587 307 587Q253 587 220.5 555.0Q188 523 188 470V229Q188 177 220.5 145.0Q253 113 307 113Q360 113 392.5 145.0Q425 177 425 229Q425 240 437 240L554 235Q559 235 562.5 232.0Q566 229 566 225Q566 156 533.5 103.0Q501 50 442.5 21.0Q384 -8 307 -8Q229 -8 170.0 22.5Q111 53 79.0 108.0Q47 163 47 235Z"/></g></svg>