<?xml version="1.0" encoding="UTF-8"?><svg xmlns="http://www.w3.org/2000/svg" viewBox="0 0 760 380" preserveAspectRatio="xMidYMid meet"><rect x="40" y="150" width="80" height="170" rx="10" fill="#11365E"/><g fill="#F4F1E8" transform="translate(68.03,246.52)"><path transform="translate(0,0) scale(0.036,-0.036)" d="M475 700H592Q597 700 600.5 696.5Q604 693 604 688V12Q604 7 600.5 3.5Q597 0 592 0H479Q469 0 465 8L206 436Q204 439 202.0 438.5Q200 438 200 434L202 12Q202 7 198.5 3.5Q195 0 190 0H73Q68 0 64.5 3.5Q61 7 61 12V688Q61 693 64.5 696.5Q68 700 73 700H186Q196 700 200 692L458 266Q460 263 462.0 263.5Q464 264 464 268L463 688Q463 693 466.5 696.5Q470 700 475 700Z"/></g><rect x="140" y="90" width="80" height="230" rx="10" fill="#8E2A1C"/><g fill="#F4F1E8" transform="translate(169.47,216.52)"><path transform="translate(0,0) scale(0.036,-0.036)" d="M556 688V590Q556 585 552.5 581.5Q549 578 544 578H365Q360 578 360 573V12Q360 7 356.5 3.5Q353 0 348 0H231Q226 0 222.5 3.5Q219 7 219 12V573Q219 578 214 578H40Q35 578 31.5 581.5Q28 585 28 590V688Q28 693 31.5 696.5Q35 700 40 700H544Q549 700 552.5 696.5Q556 693 556 688Z"/></g><rect x="240" y="30" width="80" height="290" rx="10" fill="#4A6A1F"/><g fill="#F4F1E8" transform="translate(269.056,186.52)"><path transform="translate(0,0) scale(0.036,-0.036)" d="M47 235V466Q47 538 79.0 593.0Q111 648 170.0 678.0Q229 708 307 708Q384 708 442.5 679.5Q501 651 533.5 598.5Q566 546 566 477Q566 468 554 466L437 459H435Q425 459 425 470Q425 523 392.5 555.0Q360 587 307 587Q253 587 220.5 555.0Q188 523 188 470V229Q188 177 220.5 145.0Q253 113 307 113Q360 113 392.5 145.0Q425 177 425 229Q425 240 437 240L554 235Q559 235 562.5 232.0Q566 229 566 225Q566 156 533.5 103.0Q501 50 442.5 21.0Q384 -8 307 -8Q229 -8 170.0 22.5Q111 53 79.0 108.0Q47 163 47 235Z"/></g><line x1="355" y1="30" x2="355" y2="320" stroke="#A8ACB6" stroke-width="1.5" stroke-opacity="0.5"/><g fill="#7A7A7A" transform="translate(378,75)"><path transform="translate(0,0) scale(0.014,-0.014)" d="M48 167V533Q48 612 97.5 660.0Q147 708 228 708Q309 708 359.0 660.0Q409 612 409 532V490Q409 480 399 480H323Q313 480 313 490V534Q313 575 289.5 600.0Q266 625 228 625Q190 625 166.5 600.0Q143 575 143 534V166Q143 125 166.5 100.0Q190 75 228 75Q266 75 289.5 100.0Q313 125 313 166V276Q313 280 309 280H233Q223 280 223 290V352Q223 362 233 362H399Q409 362 409 352V167Q409 88 359.0 40.0Q309 -8 228 -8Q147 -8 97.5 40.0Q48 88 48 167Z"/><path transform="translate(10.398,0) scale(0.014,-0.014)" d="M328 8 236 306Q235 309 232 309H162Q158 309 158 305V10Q158 0 148 0H72Q62 0 62 10V690Q62 700 72 700H251Q302 700 341.0 675.0Q380 650 401.5 604.5Q423 559 423 501Q423 438 397.0 391.5Q371 345 326 324Q323 321 324 318L426 11L427 7Q427 0 418 0H340Q331 0 328 8ZM158 613V389Q158 385 162 385H236Q277 385 302.0 416.5Q327 448 327 500Q327 554 302.0 585.5Q277 617 236 617H162Q158 617 158 613Z"/><path transform="translate(20.740000000000002,0) scale(0.014,-0.014)" d="M57 190V690Q57 700 67 700H143Q153 700 153 690V180Q153 133 176.5 104.0Q200 75 238 75Q277 75 300.5 104.0Q324 133 324 180V690Q324 700 334 700H410Q420 700 420 690V190Q420 101 370.0 46.5Q320 -8 238 -8Q156 -8 106.5 46.5Q57 101 57 190Z"/><path transform="translate(31.418000000000003,0) scale(0.014,-0.014)" d="M422 500Q422 412 376.0 358.0Q330 304 255 304H161Q157 304 157 300V10Q157 0 147 0H71Q61 0 61 10V691Q61 701 71 701H250Q327 701 374.5 645.5Q422 590 422 500ZM326 498Q326 553 301.0 585.5Q276 618 235 618H161Q157 618 157 614V385Q157 381 161 381H235Q276 381 301.0 412.5Q326 444 326 498Z"/><path transform="translate(41.732,0) scale(0.014,-0.014)" d="M48 175V524Q48 607 98.0 657.5Q148 708 230 708Q313 708 363.5 657.5Q414 607 414 524V175Q414 92 363.5 42.0Q313 -8 230 -8Q148 -8 98.0 42.0Q48 92 48 175ZM318 171V529Q318 572 294.0 598.5Q270 625 230 625Q191 625 167.5 598.5Q144 572 144 529V171Q144 128 167.5 101.5Q191 75 230 75Q270 75 294.0 101.5Q318 128 318 171Z"/></g><g fill="#11365E" transform="translate(378,215)"><path transform="translate(0,0) scale(0.13,-0.13)" d="M475 700H592Q597 700 600.5 696.5Q604 693 604 688V12Q604 7 600.5 3.5Q597 0 592 0H479Q469 0 465 8L206 436Q204 439 202.0 438.5Q200 438 200 434L202 12Q202 7 198.5 3.5Q195 0 190 0H73Q68 0 64.5 3.5Q61 7 61 12V688Q61 693 64.5 696.5Q68 700 73 700H186Q196 700 200 692L458 266Q460 263 462.0 263.5Q464 264 464 268L463 688Q463 693 466.5 696.5Q470 700 475 700Z"/><path transform="translate(88.45,0) scale(0.13,-0.13)" d="M556 688V590Q556 585 552.5 581.5Q549 578 544 578H365Q360 578 360 573V12Q360 7 356.5 3.5Q353 0 348 0H231Q226 0 222.5 3.5Q219 7 219 12V573Q219 578 214 578H40Q35 578 31.5 581.5Q28 585 28 590V688Q28 693 31.5 696.5Q35 700 40 700H544Q549 700 552.5 696.5Q556 693 556 688Z"/><path transform="translate(166.5,0) scale(0.13,-0.13)" d="M47 235V466Q47 538 79.0 593.0Q111 648 170.0 678.0Q229 708 307 708Q384 708 442.5 679.5Q501 651 533.5 598.5Q566 546 566 477Q566 468 554 466L437 459H435Q425 459 425 470Q425 523 392.5 555.0Q360 587 307 587Q253 587 220.5 555.0Q188 523 188 470V229Q188 177 220.5 145.0Q253 113 307 113Q360 113 392.5 145.0Q425 177 425 229Q425 240 437 240L554 235Q559 235 562.5 232.0Q566 229 566 225Q566 156 533.5 103.0Q501 50 442.5 21.0Q384 -8 307 -8Q229 -8 170.0 22.5Q111 53 79.0 108.0Q47 163 47 235Z"/></g><line x1="378" y1="245" x2="458" y2="245" stroke="#B8952E" stroke-width="1.2" stroke-opacity="0.7"/><g fill="#14202E" transform="translate(378,282)"><path transform="translate(0,0) scale(0.015,-0.015)" d="M61 12V688Q61 693 64.5 696.5Q68 700 73 700H190Q195 700 198.5 696.5Q202 693 202 688V12Q202 7 198.5 3.5Q195 0 190 0H73Q68 0 64.5 3.5Q61 7 61 12Z"/><path transform="translate(3.945,0) scale(0.015,-0.015)" d="M498 340V12Q498 7 494.5 3.5Q491 0 486 0H369Q364 0 360.5 3.5Q357 7 357 12V311Q357 351 334.5 376.0Q312 401 275 401Q238 401 215.5 376.0Q193 351 193 311V12Q193 7 189.5 3.5Q186 0 181 0H64Q59 0 55.5 3.5Q52 7 52 12V502Q52 507 55.5 510.5Q59 514 64 514H181Q186 514 189.5 510.5Q193 507 193 502V467Q193 464 195.0 463.0Q197 462 198 464Q239 522 320 522Q400 522 449.0 473.0Q498 424 498 340Z"/><path transform="translate(12.15,0) scale(0.015,-0.015)" d="M335 401H239Q234 401 234 396V184Q234 151 247.5 135.0Q261 119 291 119H324Q329 119 332.5 115.5Q336 112 336 107V12Q336 1 324 -1Q282 -3 264 -3Q181 -3 140.0 24.5Q99 52 98 128V396Q98 401 93 401H36Q31 401 27.5 404.5Q24 408 24 413V502Q24 507 27.5 510.5Q31 514 36 514H93Q98 514 98 519V638Q98 643 101.5 646.5Q105 650 110 650H222Q227 650 230.5 646.5Q234 643 234 638V519Q234 514 239 514H335Q340 514 343.5 510.5Q347 507 347 502V413Q347 408 343.5 404.5Q340 401 335 401Z"/><path transform="translate(17.85,0) scale(0.015,-0.015)" d="M511 225Q510 213 498 213H189Q183 213 185 208Q188 188 196 168Q222 112 302 112Q366 113 403 164Q407 170 412 170Q415 170 419 166L491 95Q496 90 496 86Q496 84 492 78Q459 37 407.0 14.5Q355 -8 293 -8Q207 -8 147.5 31.0Q88 70 62 140Q41 190 41 271Q41 326 56 368Q79 439 136.5 481.0Q194 523 273 523Q373 523 433.5 465.0Q494 407 507 310Q513 272 511 225ZM191 342Q187 329 184 310Q184 305 189 305H362Q368 305 366 310Q361 339 361 338Q352 368 329.5 384.5Q307 401 274 401Q211 401 191 342Z"/><path transform="translate(26.04,0) scale(0.015,-0.015)" d="M52 12V688Q52 693 55.5 696.5Q59 700 64 700H181Q186 700 189.5 696.5Q193 693 193 688V12Q193 7 189.5 3.5Q186 0 181 0H64Q59 0 55.5 3.5Q52 7 52 12Z"/><path transform="translate(29.7,0) scale(0.015,-0.015)" d="M49 651Q49 686 71.0 708.0Q93 730 128 730Q163 730 185.0 708.0Q207 686 207 651Q207 617 184.5 594.5Q162 572 128 572Q94 572 71.5 594.5Q49 617 49 651ZM56 12V503Q56 508 59.5 511.5Q63 515 68 515H185Q190 515 193.5 511.5Q197 508 197 503V12Q197 7 193.5 3.5Q190 0 185 0H68Q63 0 59.5 3.5Q56 7 56 12Z"/><path transform="translate(33.525,0) scale(0.015,-0.015)" d="M378 514H495Q500 514 503.5 510.5Q507 507 507 502V46Q507 -85 431.5 -141.0Q356 -197 237 -197Q202 -197 159 -192Q149 -191 149 -179L153 -76Q153 -63 167 -65Q203 -71 233 -71Q297 -71 331.5 -43.0Q366 -15 366 47Q366 50 364.0 50.5Q362 51 360 49Q322 8 249 8Q184 8 129.5 39.5Q75 71 52 141Q37 187 37 260Q37 338 55 387Q76 448 126.0 485.0Q176 522 242 522Q319 522 360 476Q362 474 364.0 474.5Q366 475 366 478V502Q366 507 369.5 510.5Q373 514 378 514ZM366 261Q366 292 364.0 309.0Q362 326 357 341Q348 368 327.0 384.5Q306 401 275 401Q245 401 224.0 384.5Q203 368 193 341Q179 311 179 260Q179 204 191 180Q200 153 222.5 136.5Q245 120 276 120Q308 120 329.0 136.5Q350 153 358 179Q366 209 366 261Z"/><path transform="translate(41.864999999999995,0) scale(0.015,-0.015)" d="M511 225Q510 213 498 213H189Q183 213 185 208Q188 188 196 168Q222 112 302 112Q366 113 403 164Q407 170 412 170Q415 170 419 166L491 95Q496 90 496 86Q496 84 492 78Q459 37 407.0 14.5Q355 -8 293 -8Q207 -8 147.5 31.0Q88 70 62 140Q41 190 41 271Q41 326 56 368Q79 439 136.5 481.0Q194 523 273 523Q373 523 433.5 465.0Q494 407 507 310Q513 272 511 225ZM191 342Q187 329 184 310Q184 305 189 305H362Q368 305 366 310Q361 339 361 338Q352 368 329.5 384.5Q307 401 274 401Q211 401 191 342ZM116 587 189 692Q194 700 203 700H336Q345 700 350 692L426 587Q429 583 429 580Q429 572 418 572H328Q319 572 314 580L274 641Q271 647 268 641L228 580Q223 572 214 572H124Q117 572 114.5 576.5Q112 581 116 587Z"/><path transform="translate(50.02499999999999,0) scale(0.015,-0.015)" d="M498 340V12Q498 7 494.5 3.5Q491 0 486 0H369Q364 0 360.5 3.5Q357 7 357 12V311Q357 351 334.5 376.0Q312 401 275 401Q238 401 215.5 376.0Q193 351 193 311V12Q193 7 189.5 3.5Q186 0 181 0H64Q59 0 55.5 3.5Q52 7 52 12V502Q52 507 55.5 510.5Q59 514 64 514H181Q186 514 189.5 510.5Q193 507 193 502V467Q193 464 195.0 463.0Q197 462 198 464Q239 522 320 522Q400 522 449.0 473.0Q498 424 498 340Z"/><path transform="translate(58.22999999999999,0) scale(0.015,-0.015)" d="M56 142Q39 192 39 260Q39 327 56 376Q80 444 139.0 483.0Q198 522 278 522Q358 522 418.5 482.0Q479 442 499 381Q507 357 507 345V343Q507 334 497 332L382 315H380Q371 315 368 325L365 341Q358 367 334.0 384.0Q310 401 277 401Q245 401 223.0 385.0Q201 369 192 341Q181 311 181 259Q181 207 191 177Q200 147 222.5 130.0Q245 113 277 113Q308 113 331.5 129.5Q355 146 364 175Q365 177 365 181Q366 182 366 184Q367 196 380 194L495 176Q505 174 505 165Q505 157 499 135Q478 68 417.5 30.0Q357 -8 278 -8Q198 -8 139.5 32.0Q81 72 56 142Z"/><path transform="translate(66.285,0) scale(0.015,-0.015)" d="M49 651Q49 686 71.0 708.0Q93 730 128 730Q163 730 185.0 708.0Q207 686 207 651Q207 617 184.5 594.5Q162 572 128 572Q94 572 71.5 594.5Q49 617 49 651ZM56 12V503Q56 508 59.5 511.5Q63 515 68 515H185Q190 515 193.5 511.5Q197 508 197 503V12Q197 7 193.5 3.5Q190 0 185 0H68Q63 0 59.5 3.5Q56 7 56 12Z"/><path transform="translate(70.11,0) scale(0.015,-0.015)" d="M481 351V12Q481 7 477.5 3.5Q474 0 469 0H352Q347 0 343.5 3.5Q340 7 340 12V45Q340 48 338.0 49.0Q336 50 334 47Q292 -8 199 -8Q121 -8 73.0 30.0Q25 68 25 142Q25 219 79.0 261.5Q133 304 233 304H335Q340 304 340 309V331Q340 364 320.0 382.5Q300 401 260 401Q229 401 208.5 390.0Q188 379 182 359Q179 348 169 349L48 365Q36 367 37 374Q41 416 70.5 450.0Q100 484 148.5 503.0Q197 522 257 522Q322 522 373.0 499.5Q424 477 452.5 438.0Q481 399 481 351ZM340 179V215Q340 220 335 220H263Q218 220 192.5 203.0Q167 186 167 155Q167 128 186.0 112.5Q205 97 237 97Q280 97 310.0 120.0Q340 143 340 179Z"/><path transform="translate(81.03,0) scale(0.015,-0.015)" d="M49 651Q49 686 71.0 708.0Q93 730 128 730Q163 730 185.0 708.0Q207 686 207 651Q207 617 184.5 594.5Q162 572 128 572Q94 572 71.5 594.5Q49 617 49 651ZM56 12V503Q56 508 59.5 511.5Q63 515 68 515H185Q190 515 193.5 511.5Q197 508 197 503V12Q197 7 193.5 3.5Q190 0 185 0H68Q63 0 59.5 3.5Q56 7 56 12Z"/><path transform="translate(84.855,0) scale(0.015,-0.015)" d="M498 340V12Q498 7 494.5 3.5Q491 0 486 0H369Q364 0 360.5 3.5Q357 7 357 12V311Q357 351 334.5 376.0Q312 401 275 401Q238 401 215.5 376.0Q193 351 193 311V12Q193 7 189.5 3.5Q186 0 181 0H64Q59 0 55.5 3.5Q52 7 52 12V502Q52 507 55.5 510.5Q59 514 64 514H181Q186 514 189.5 510.5Q193 507 193 502V467Q193 464 195.0 463.0Q197 462 198 464Q239 522 320 522Q400 522 449.0 473.0Q498 424 498 340Z"/><path transform="translate(93.06,0) scale(0.015,-0.015)" d="M35 142V152Q35 157 38.5 160.5Q42 164 47 164H158Q163 164 166.5 160.5Q170 157 170 152V151Q170 129 194.5 113.5Q219 98 256 98Q290 98 311.0 111.5Q332 125 332 145Q332 163 314.0 172.0Q296 181 255 191Q208 203 181 214Q117 236 79.0 268.0Q41 300 41 360Q41 434 98.5 477.5Q156 521 251 521Q315 521 363.0 500.5Q411 480 437.5 443.0Q464 406 464 359Q464 354 460.5 350.5Q457 347 452 347H345Q340 347 336.5 350.5Q333 354 333 359Q333 381 310.5 396.0Q288 411 251 411Q218 411 197.0 399.0Q176 387 176 366Q176 346 196.5 336.0Q217 326 265 315Q276 312 290.0 308.5Q304 305 320 300Q391 279 432.0 246.0Q473 213 473 150Q473 76 414.5 34.5Q356 -7 257 -7Q190 -7 140.0 12.0Q90 31 62.5 65.0Q35 99 35 142Z"/><path transform="translate(100.59,0) scale(0.015,-0.015)" d="M335 401H239Q234 401 234 396V184Q234 151 247.5 135.0Q261 119 291 119H324Q329 119 332.5 115.5Q336 112 336 107V12Q336 1 324 -1Q282 -3 264 -3Q181 -3 140.0 24.5Q99 52 98 128V396Q98 401 93 401H36Q31 401 27.5 404.5Q24 408 24 413V502Q24 507 27.5 510.5Q31 514 36 514H93Q98 514 98 519V638Q98 643 101.5 646.5Q105 650 110 650H222Q227 650 230.5 646.5Q234 643 234 638V519Q234 514 239 514H335Q340 514 343.5 510.5Q347 507 347 502V413Q347 408 343.5 404.5Q340 401 335 401Z"/><path transform="translate(106.29,0) scale(0.015,-0.015)" d="M49 651Q49 686 71.0 708.0Q93 730 128 730Q163 730 185.0 708.0Q207 686 207 651Q207 617 184.5 594.5Q162 572 128 572Q94 572 71.5 594.5Q49 617 49 651ZM56 12V503Q56 508 59.5 511.5Q63 515 68 515H185Q190 515 193.5 511.5Q197 508 197 503V12Q197 7 193.5 3.5Q190 0 185 0H68Q63 0 59.5 3.5Q56 7 56 12Z"/><path transform="translate(110.11500000000001,0) scale(0.015,-0.015)" d="M335 401H239Q234 401 234 396V184Q234 151 247.5 135.0Q261 119 291 119H324Q329 119 332.5 115.5Q336 112 336 107V12Q336 1 324 -1Q282 -3 264 -3Q181 -3 140.0 24.5Q99 52 98 128V396Q98 401 93 401H36Q31 401 27.5 404.5Q24 408 24 413V502Q24 507 27.5 510.5Q31 514 36 514H93Q98 514 98 519V638Q98 643 101.5 646.5Q105 650 110 650H222Q227 650 230.5 646.5Q234 643 234 638V519Q234 514 239 514H335Q340 514 343.5 510.5Q347 507 347 502V413Q347 408 343.5 404.5Q340 401 335 401Z"/><path transform="translate(115.81500000000001,0) scale(0.015,-0.015)" d="M364 514H481Q486 514 489.5 510.5Q493 507 493 502V12Q493 7 489.5 3.5Q486 0 481 0H364Q359 0 355.5 3.5Q352 7 352 12V46Q352 49 350.0 49.5Q348 50 346 47Q306 -7 222 -7Q146 -7 97.0 39.0Q48 85 48 168V502Q48 507 51.5 510.5Q55 514 60 514H176Q181 514 184.5 510.5Q188 507 188 502V203Q188 163 209.5 138.0Q231 113 269 113Q303 113 325.0 133.5Q347 154 352 187V502Q352 507 355.5 510.5Q359 514 364 514Z"/><path transform="translate(123.99000000000001,0) scale(0.015,-0.015)" d="M56 142Q39 192 39 260Q39 327 56 376Q80 444 139.0 483.0Q198 522 278 522Q358 522 418.5 482.0Q479 442 499 381Q507 357 507 345V343Q507 334 497 332L382 315H380Q371 315 368 325L365 341Q358 367 334.0 384.0Q310 401 277 401Q245 401 223.0 385.0Q201 369 192 341Q181 311 181 259Q181 207 191 177Q200 147 222.5 130.0Q245 113 277 113Q308 113 331.5 129.5Q355 146 364 175Q365 177 365 181Q366 182 366 184Q367 196 380 194L495 176Q505 174 505 165Q505 157 499 135Q478 68 417.5 30.0Q357 -8 278 -8Q198 -8 139.5 32.0Q81 72 56 142Z"/><path transform="translate(132.04500000000002,0) scale(0.015,-0.015)" d="M49 651Q49 686 71.0 708.0Q93 730 128 730Q163 730 185.0 708.0Q207 686 207 651Q207 617 184.5 594.5Q162 572 128 572Q94 572 71.5 594.5Q49 617 49 651ZM56 12V503Q56 508 59.5 511.5Q63 515 68 515H185Q190 515 193.5 511.5Q197 508 197 503V12Q197 7 193.5 3.5Q190 0 185 0H68Q63 0 59.5 3.5Q56 7 56 12Z"/><path transform="translate(135.87,0) scale(0.015,-0.015)" d="M53 156Q39 203 39 258Q39 317 53 364Q76 438 136.0 480.0Q196 522 280 522Q362 522 420.0 480.5Q478 439 502 365Q518 315 518 260Q518 206 504 159Q482 81 422.5 36.5Q363 -8 279 -8Q195 -8 135.0 36.0Q75 80 53 156ZM368 188Q376 220 376 258Q376 300 368 329Q357 363 334.0 382.0Q311 401 278 401Q244 401 221.5 382.0Q199 363 189 329Q181 305 181 258Q181 213 188 188Q198 153 221.5 133.0Q245 113 279 113Q312 113 335.0 133.0Q358 153 368 188Z"/><path transform="translate(144.225,0) scale(0.015,-0.015)" d="M498 340V12Q498 7 494.5 3.5Q491 0 486 0H369Q364 0 360.5 3.5Q357 7 357 12V311Q357 351 334.5 376.0Q312 401 275 401Q238 401 215.5 376.0Q193 351 193 311V12Q193 7 189.5 3.5Q186 0 181 0H64Q59 0 55.5 3.5Q52 7 52 12V502Q52 507 55.5 510.5Q59 514 64 514H181Q186 514 189.5 510.5Q193 507 193 502V467Q193 464 195.0 463.0Q197 462 198 464Q239 522 320 522Q400 522 449.0 473.0Q498 424 498 340Z"/><path transform="translate(152.43,0) scale(0.015,-0.015)" d="M481 351V12Q481 7 477.5 3.5Q474 0 469 0H352Q347 0 343.5 3.5Q340 7 340 12V45Q340 48 338.0 49.0Q336 50 334 47Q292 -8 199 -8Q121 -8 73.0 30.0Q25 68 25 142Q25 219 79.0 261.5Q133 304 233 304H335Q340 304 340 309V331Q340 364 320.0 382.5Q300 401 260 401Q229 401 208.5 390.0Q188 379 182 359Q179 348 169 349L48 365Q36 367 37 374Q41 416 70.5 450.0Q100 484 148.5 503.0Q197 522 257 522Q322 522 373.0 499.5Q424 477 452.5 438.0Q481 399 481 351ZM340 179V215Q340 220 335 220H263Q218 220 192.5 203.0Q167 186 167 155Q167 128 186.0 112.5Q205 97 237 97Q280 97 310.0 120.0Q340 143 340 179Z"/><path transform="translate(160.35,0) scale(0.015,-0.015)" d="M52 12V688Q52 693 55.5 696.5Q59 700 64 700H181Q186 700 189.5 696.5Q193 693 193 688V12Q193 7 189.5 3.5Q186 0 181 0H64Q59 0 55.5 3.5Q52 7 52 12Z"/><path transform="translate(164.01,0) scale(0.015,-0.015)" d="M51 75Q51 110 73.0 132.0Q95 154 130 154Q165 154 187.0 132.0Q209 110 209 75Q209 41 186.5 18.5Q164 -4 130 -4Q96 -4 73.5 18.5Q51 41 51 75Z"/><path transform="translate(171.06,0) scale(0.015,-0.015)" d="M61 12V688Q61 693 64.5 696.5Q68 700 73 700H190Q195 700 198.5 696.5Q202 693 202 688V12Q202 7 198.5 3.5Q195 0 190 0H73Q68 0 64.5 3.5Q61 7 61 12Z"/><path transform="translate(175.005,0) scale(0.015,-0.015)" d="M788 343V12Q788 7 784.5 3.5Q781 0 776 0H659Q654 0 650.5 3.5Q647 7 647 12V312Q647 353 626.0 377.0Q605 401 570 401Q535 401 513.0 377.0Q491 353 491 313V12Q491 7 487.5 3.5Q484 0 479 0H363Q358 0 354.5 3.5Q351 7 351 12V312Q351 352 329.0 376.5Q307 401 272 401Q240 401 218.5 382.0Q197 363 193 329V12Q193 7 189.5 3.5Q186 0 181 0H64Q59 0 55.5 3.5Q52 7 52 12V502Q52 507 55.5 510.5Q59 514 64 514H181Q186 514 189.5 510.5Q193 507 193 502V463Q193 460 195.0 459.0Q197 458 199 461Q240 522 326 522Q376 522 413.5 501.0Q451 480 471 441Q474 435 478 441Q500 482 537.5 502.0Q575 522 622 522Q700 522 744.0 475.0Q788 428 788 343Z"/><path transform="translate(187.53,0) scale(0.015,-0.015)" d="M529 256Q529 187 510 131Q487 67 437.5 29.5Q388 -8 315 -8Q243 -8 203 42Q201 45 199.0 44.0Q197 43 197 40V-174Q197 -179 193.5 -182.5Q190 -186 185 -186H68Q63 -186 59.5 -182.5Q56 -179 56 -174V502Q56 507 59.5 510.5Q63 514 68 514H185Q190 514 193.5 510.5Q197 507 197 502V469Q197 466 199.0 465.5Q201 465 203 467Q245 522 319 522Q388 522 438.5 483.5Q489 445 511 376Q529 325 529 256ZM383 258Q383 321 362 358Q339 401 288 401Q242 401 219 358Q198 322 198 257Q198 190 220 153Q243 113 288 113Q333 113 358 152Q383 191 383 258Z"/><path transform="translate(196.05,0) scale(0.015,-0.015)" d="M481 351V12Q481 7 477.5 3.5Q474 0 469 0H352Q347 0 343.5 3.5Q340 7 340 12V45Q340 48 338.0 49.0Q336 50 334 47Q292 -8 199 -8Q121 -8 73.0 30.0Q25 68 25 142Q25 219 79.0 261.5Q133 304 233 304H335Q340 304 340 309V331Q340 364 320.0 382.5Q300 401 260 401Q229 401 208.5 390.0Q188 379 182 359Q179 348 169 349L48 365Q36 367 37 374Q41 416 70.5 450.0Q100 484 148.5 503.0Q197 522 257 522Q322 522 373.0 499.5Q424 477 452.5 438.0Q481 399 481 351ZM340 179V215Q340 220 335 220H263Q218 220 192.5 203.0Q167 186 167 155Q167 128 186.0 112.5Q205 97 237 97Q280 97 310.0 120.0Q340 143 340 179Z"/><path transform="translate(203.97,0) scale(0.015,-0.015)" d="M56 142Q39 192 39 260Q39 327 56 376Q80 444 139.0 483.0Q198 522 278 522Q358 522 418.5 482.0Q479 442 499 381Q507 357 507 345V343Q507 334 497 332L382 315H380Q371 315 368 325L365 341Q358 367 334.0 384.0Q310 401 277 401Q245 401 223.0 385.0Q201 369 192 341Q181 311 181 259Q181 207 191 177Q200 147 222.5 130.0Q245 113 277 113Q308 113 331.5 129.5Q355 146 364 175Q365 177 365 181Q366 182 366 184Q367 196 380 194L495 176Q505 174 505 165Q505 157 499 135Q478 68 417.5 30.0Q357 -8 278 -8Q198 -8 139.5 32.0Q81 72 56 142Z"/><path transform="translate(212.025,0) scale(0.015,-0.015)" d="M335 401H239Q234 401 234 396V184Q234 151 247.5 135.0Q261 119 291 119H324Q329 119 332.5 115.5Q336 112 336 107V12Q336 1 324 -1Q282 -3 264 -3Q181 -3 140.0 24.5Q99 52 98 128V396Q98 401 93 401H36Q31 401 27.5 404.5Q24 408 24 413V502Q24 507 27.5 510.5Q31 514 36 514H93Q98 514 98 519V638Q98 643 101.5 646.5Q105 650 110 650H222Q227 650 230.5 646.5Q234 643 234 638V519Q234 514 239 514H335Q340 514 343.5 510.5Q347 507 347 502V413Q347 408 343.5 404.5Q340 401 335 401Z"/><path transform="translate(217.725,0) scale(0.015,-0.015)" d="M53 156Q39 203 39 258Q39 317 53 364Q76 438 136.0 480.0Q196 522 280 522Q362 522 420.0 480.5Q478 439 502 365Q518 315 518 260Q518 206 504 159Q482 81 422.5 36.5Q363 -8 279 -8Q195 -8 135.0 36.0Q75 80 53 156ZM368 188Q376 220 376 258Q376 300 368 329Q357 363 334.0 382.0Q311 401 278 401Q244 401 221.5 382.0Q199 363 189 329Q181 305 181 258Q181 213 188 188Q198 153 221.5 133.0Q245 113 279 113Q312 113 335.0 133.0Q358 153 368 188Z"/><path transform="translate(229.07999999999998,0) scale(0.015,-0.015)" d="M365 507Q373 503 371 492L350 378Q349 366 336 371Q321 376 301 376Q293 376 279 374Q243 371 218.0 347.5Q193 324 193 285V12Q193 7 189.5 3.5Q186 0 181 0H64Q59 0 55.5 3.5Q52 7 52 12V502Q52 507 55.5 510.5Q59 514 64 514H181Q186 514 189.5 510.5Q193 507 193 502V464Q193 461 195.0 460.0Q197 459 198 461Q239 521 308 521Q344 521 365 507Z"/><path transform="translate(234.825,0) scale(0.015,-0.015)" d="M511 225Q510 213 498 213H189Q183 213 185 208Q188 188 196 168Q222 112 302 112Q366 113 403 164Q407 170 412 170Q415 170 419 166L491 95Q496 90 496 86Q496 84 492 78Q459 37 407.0 14.5Q355 -8 293 -8Q207 -8 147.5 31.0Q88 70 62 140Q41 190 41 271Q41 326 56 368Q79 439 136.5 481.0Q194 523 273 523Q373 523 433.5 465.0Q494 407 507 310Q513 272 511 225ZM191 342Q187 329 184 310Q184 305 189 305H362Q368 305 366 310Q361 339 361 338Q352 368 329.5 384.5Q307 401 274 401Q211 401 191 342Z"/><path transform="translate(243.015,0) scale(0.015,-0.015)" d="M481 351V12Q481 7 477.5 3.5Q474 0 469 0H352Q347 0 343.5 3.5Q340 7 340 12V45Q340 48 338.0 49.0Q336 50 334 47Q292 -8 199 -8Q121 -8 73.0 30.0Q25 68 25 142Q25 219 79.0 261.5Q133 304 233 304H335Q340 304 340 309V331Q340 364 320.0 382.5Q300 401 260 401Q229 401 208.5 390.0Q188 379 182 359Q179 348 169 349L48 365Q36 367 37 374Q41 416 70.5 450.0Q100 484 148.5 503.0Q197 522 257 522Q322 522 373.0 499.5Q424 477 452.5 438.0Q481 399 481 351ZM340 179V215Q340 220 335 220H263Q218 220 192.5 203.0Q167 186 167 155Q167 128 186.0 112.5Q205 97 237 97Q280 97 310.0 120.0Q340 143 340 179Z"/><path transform="translate(250.93499999999997,0) scale(0.015,-0.015)" d="M52 12V688Q52 693 55.5 696.5Q59 700 64 700H181Q186 700 189.5 696.5Q193 693 193 688V12Q193 7 189.5 3.5Q186 0 181 0H64Q59 0 55.5 3.5Q52 7 52 12Z"/><path transform="translate(254.59499999999997,0) scale(0.015,-0.015)" d="M51 75Q51 110 73.0 132.0Q95 154 130 154Q165 154 187.0 132.0Q209 110 209 75Q209 41 186.5 18.5Q164 -4 130 -4Q96 -4 73.5 18.5Q51 41 51 75Z"/></g><g fill="#5A5A5A" transform="translate(378,308)"><path transform="translate(0,0) scale(0.0125,-0.0125)" d="M283 -12Q201 -12 146.5 32.0Q92 76 71.5 150.0Q51 224 66 313Q78 384 110.0 443.0Q142 502 188.5 545.5Q235 589 291.5 612.5Q348 636 410 636Q495 636 550.0 592.0Q605 548 626.0 475.0Q647 402 631 313Q618 239 584.5 179.5Q551 120 503.0 77.0Q455 34 399.0 11.0Q343 -12 283 -12ZM326 14Q407 14 467.0 78.5Q527 143 549 260Q564 332 558.0 395.5Q552 459 528.0 508.0Q504 557 464.0 584.5Q424 612 370 612Q286 612 227.0 545.5Q168 479 147 366Q134 297 139.5 233.5Q145 170 168.0 120.5Q191 71 231.0 42.5Q271 14 326 14Z"/><path transform="translate(11.075000000000001,0) scale(0.0125,-0.0125)" d="M337 -9Q309 -9 302.0 14.0Q295 37 304 89L333 248Q355 355 300 355Q269 355 235.0 314.5Q201 274 171.0 197.0Q141 120 121 9L107 10Q128 127 162.5 214.5Q197 302 242.5 350.5Q288 399 338 399Q381 399 396.0 368.0Q411 337 398 267L365 89Q360 59 365.0 46.5Q370 34 381 34Q392 34 407.5 46.0Q423 58 443 77Q446 81 450.0 77.0Q454 73 451 69Q419 32 392.0 11.5Q365 -9 337 -9ZM82 -8Q66 -8 60.5 -6.0Q55 -4 55 -1Q55 2 60.5 25.0Q66 48 70 74L111 297Q121 353 95 353Q84 353 67.0 341.5Q50 330 29 309Q26 305 22.0 309.5Q18 314 21 317Q56 357 84.5 376.0Q113 395 140 395Q167 395 174.5 373.0Q182 351 173 302L121 9Q118 -8 82 -8Z"/><path transform="translate(16.925,0) scale(0.0125,-0.0125)" d="M155 -14Q105 -14 73.5 14.0Q42 42 31.5 89.0Q21 136 31 193Q43 252 74.0 298.5Q105 345 149.5 372.0Q194 399 245 399Q298 399 330.0 371.0Q362 343 372.5 296.0Q383 249 372 193Q359 128 325.0 81.5Q291 35 246.0 10.5Q201 -14 155 -14ZM190 11Q228 11 259.0 47.5Q290 84 302 149Q309 189 307.5 228.5Q306 268 295.0 301.5Q284 335 264.0 355.0Q244 375 214 375Q177 375 145.5 339.0Q114 303 101 236Q93 195 95.0 155.5Q97 116 108.5 83.0Q120 50 140.5 30.5Q161 11 190 11Z"/><path transform="translate(21.9375,0) scale(0.0125,-0.0125)" d="M186 -13Q154 -13 131.5 6.0Q109 25 99.0 55.5Q89 86 92 119Q98 163 121.5 209.5Q145 256 166 301Q172 315 170.5 321.5Q169 328 158 328H108Q83 328 69.5 324.0Q56 320 48.0 309.0Q40 298 33 278Q31 274 25.5 275.5Q20 277 22 282Q37 325 48.5 347.5Q60 370 77.0 378.5Q94 387 123 387H213Q222 387 223.5 385.0Q225 383 221 375Q199 325 178.5 267.5Q158 210 153 167Q145 110 165.0 77.5Q185 45 221 45Q251 45 279.0 63.5Q307 82 329.5 116.0Q352 150 362 196Q371 235 367.5 257.5Q364 280 355.0 293.5Q346 307 337 315Q331 322 322.0 332.5Q313 343 313 357Q313 378 327.5 387.0Q342 396 357 396Q379 396 390.0 377.5Q401 359 403.5 326.5Q406 294 401 253Q394 194 372.0 145.5Q350 97 318.5 61.5Q287 26 252.5 6.5Q218 -13 186 -13Z"/><path transform="translate(27.4,0) scale(0.0125,-0.0125)" d="M155 -14Q105 -14 73.5 14.0Q42 42 31.5 89.0Q21 136 31 193Q43 252 74.0 298.5Q105 345 149.5 372.0Q194 399 245 399Q298 399 330.0 371.0Q362 343 372.5 296.0Q383 249 372 193Q359 128 325.0 81.5Q291 35 246.0 10.5Q201 -14 155 -14ZM190 11Q228 11 259.0 47.5Q290 84 302 149Q309 189 307.5 228.5Q306 268 295.0 301.5Q284 335 264.0 355.0Q244 375 214 375Q177 375 145.5 339.0Q114 303 101 236Q93 195 95.0 155.5Q97 116 108.5 83.0Q120 50 140.5 30.5Q161 11 190 11Z"/><path transform="translate(35.3375,0) scale(0.0125,-0.0125)" d="M-60 -275Q-64 -276 -65.0 -270.0Q-66 -264 -62 -263Q-41 -259 -30.5 -252.5Q-20 -246 -14.0 -230.5Q-8 -215 -3 -185L99 386Q99 389 107.5 395.0Q116 401 128.0 410.5Q140 420 149.5 433.0Q159 446 163 461Q164 465 169.5 464.0Q175 463 174 459L61 -178Q54 -218 65.0 -229.5Q76 -241 115 -236Q119 -235 121.0 -240.5Q123 -246 118 -247ZM145 -1Q112 -1 91.5 2.0Q71 5 57 8L67 63Q87 49 112.5 38.5Q138 28 176 28Q217 28 245.5 53.0Q274 78 291.5 121.5Q309 165 315 220Q320 254 315.5 284.0Q311 314 292.5 333.5Q274 353 235 353Q189 353 142.5 328.0Q96 303 35 257Q32 255 28.0 259.5Q24 264 28 267Q89 320 155.5 356.5Q222 393 285 393Q342 393 367.0 357.0Q392 321 382 253Q375 202 352.0 156.0Q329 110 296.0 74.5Q263 39 224.0 19.0Q185 -1 145 -1Z"/><path transform="translate(40.4125,0) scale(0.0125,-0.0125)" d="M81 -13Q48 -13 30.5 11.0Q13 35 20 91Q28 144 55.0 198.0Q82 252 120.5 298.0Q159 344 203.0 371.5Q247 399 287 399Q306 399 325.0 392.0Q344 385 357.5 369.5Q371 354 373 328L325 357Q339 359 356.0 373.5Q373 388 381 407Q383 410 388.5 408.5Q394 407 393 405L335 89Q325 34 348 34Q359 34 375.5 46.0Q392 58 411 77Q414 80 418.0 76.0Q422 72 419 69Q387 32 360.0 11.5Q333 -9 307 -9Q280 -9 272.0 13.5Q264 36 273 89L297 229L315 246Q288 168 248.5 109.5Q209 51 165.5 19.0Q122 -13 81 -13ZM126 44Q153 44 181.0 64.5Q209 85 234.5 119.0Q260 153 278.5 193.0Q297 233 304 269Q312 309 297.5 334.5Q283 360 248 359Q215 359 182.0 331.0Q149 303 123.0 255.5Q97 208 88 147Q80 93 90.0 68.5Q100 44 126 44Z"/><path transform="translate(45.875,0) scale(0.0125,-0.0125)" d="M106 -13Q81 -13 59.5 0.5Q38 14 27.5 44.5Q17 75 26 126Q36 181 63.0 230.0Q90 279 128.0 317.5Q166 356 209.0 377.5Q252 399 295 399Q324 399 348.5 383.5Q373 368 376 332L332 246Q302 171 265.5 112.5Q229 54 189.0 20.5Q149 -13 106 -13ZM144 42Q175 42 204.5 66.5Q234 91 257.5 128.5Q281 166 297.5 205.0Q314 244 319 273Q327 315 307.0 337.5Q287 360 253 359Q195 359 151.0 310.5Q107 262 91 171Q81 105 96.0 73.5Q111 42 144 42ZM318 -9Q290 -9 282.5 14.0Q275 37 285 89L382 610Q389 649 375.0 658.5Q361 668 316 646Q312 645 310.0 651.0Q308 657 312 658L450 725Q454 727 458.0 723.0Q462 719 461 717L346 89Q340 59 345.5 46.5Q351 34 361 34Q372 34 388.0 46.0Q404 58 423 77Q427 81 431.0 77.0Q435 73 431 69Q398 32 372.0 11.5Q346 -9 318 -9Z"/><path transform="translate(51.45,0) scale(0.0125,-0.0125)" d="M118 9 108 10Q117 57 131.0 110.0Q145 163 163.0 213.5Q181 264 202.0 305.0Q223 346 245.5 370.5Q268 395 292 395Q306 395 320.5 387.5Q335 380 344.0 367.0Q353 354 350 338Q348 325 338.5 316.0Q329 307 314 307Q299 307 290.5 315.0Q282 323 275.5 331.0Q269 339 258 339Q245 339 229.0 316.0Q213 293 196.0 256.0Q179 219 163.5 174.5Q148 130 136.0 86.5Q124 43 118 9ZM79 -8Q63 -8 58.0 -6.0Q53 -4 53 -1Q53 2 58.5 26.0Q64 50 68 74L104 271Q110 304 108.5 321.0Q107 338 101.0 345.5Q95 353 86 353Q74 353 58.5 341.5Q43 330 27 315Q24 312 20.0 316.0Q16 320 19 323Q51 360 78.0 377.5Q105 395 131 395Q150 395 160.5 384.0Q171 373 172.5 347.0Q174 321 166 276L118 9Q115 -8 79 -8Z"/><path transform="translate(55.7625,0) scale(0.0125,-0.0125)" d="M81 -13Q48 -13 30.5 11.0Q13 35 20 91Q28 144 55.0 198.0Q82 252 120.5 298.0Q159 344 203.0 371.5Q247 399 287 399Q306 399 325.0 392.0Q344 385 357.5 369.5Q371 354 373 328L325 357Q339 359 356.0 373.5Q373 388 381 407Q383 410 388.5 408.5Q394 407 393 405L335 89Q325 34 348 34Q359 34 375.5 46.0Q392 58 411 77Q414 80 418.0 76.0Q422 72 419 69Q387 32 360.0 11.5Q333 -9 307 -9Q280 -9 272.0 13.5Q264 36 273 89L297 229L315 246Q288 168 248.5 109.5Q209 51 165.5 19.0Q122 -13 81 -13ZM126 44Q153 44 181.0 64.5Q209 85 234.5 119.0Q260 153 278.5 193.0Q297 233 304 269Q312 309 297.5 334.5Q283 360 248 359Q215 359 182.0 331.0Q149 303 123.0 255.5Q97 208 88 147Q80 93 90.0 68.5Q100 44 126 44ZM167 477Q165 476 161.5 478.5Q158 481 160 484Q169 496 183.0 512.0Q197 528 214.0 539.5Q231 551 251 551Q267 551 286.5 545.0Q306 539 328.5 533.0Q351 527 374 527Q395 527 406.5 534.5Q418 542 430 554Q432 556 435.5 552.5Q439 549 437 547Q408 506 390.0 492.5Q372 479 351 479Q330 479 309.5 485.5Q289 492 268.0 498.0Q247 504 222 504Q199 504 189.0 496.0Q179 488 167 477Z"/><path transform="translate(61.225,0) scale(0.0125,-0.0125)" d="M155 -14Q105 -14 73.5 14.0Q42 42 31.5 89.0Q21 136 31 193Q43 252 74.0 298.5Q105 345 149.5 372.0Q194 399 245 399Q298 399 330.0 371.0Q362 343 372.5 296.0Q383 249 372 193Q359 128 325.0 81.5Q291 35 246.0 10.5Q201 -14 155 -14ZM190 11Q228 11 259.0 47.5Q290 84 302 149Q309 189 307.5 228.5Q306 268 295.0 301.5Q284 335 264.0 355.0Q244 375 214 375Q177 375 145.5 339.0Q114 303 101 236Q93 195 95.0 155.5Q97 116 108.5 83.0Q120 50 140.5 30.5Q161 11 190 11Z"/><path transform="translate(69.1625,0) scale(0.0125,-0.0125)" d="M106 -13Q81 -13 59.5 0.5Q38 14 27.5 44.5Q17 75 26 126Q36 181 63.0 230.0Q90 279 128.0 317.5Q166 356 209.0 377.5Q252 399 295 399Q324 399 348.5 383.5Q373 368 376 332L332 246Q302 171 265.5 112.5Q229 54 189.0 20.5Q149 -13 106 -13ZM144 42Q175 42 204.5 66.5Q234 91 257.5 128.5Q281 166 297.5 205.0Q314 244 319 273Q327 315 307.0 337.5Q287 360 253 359Q195 359 151.0 310.5Q107 262 91 171Q81 105 96.0 73.5Q111 42 144 42ZM318 -9Q290 -9 282.5 14.0Q275 37 285 89L382 610Q389 649 375.0 658.5Q361 668 316 646Q312 645 310.0 651.0Q308 657 312 658L450 725Q454 727 458.0 723.0Q462 719 461 717L346 89Q340 59 345.5 46.5Q351 34 361 34Q372 34 388.0 46.0Q404 58 423 77Q427 81 431.0 77.0Q435 73 431 69Q398 32 372.0 11.5Q346 -9 318 -9Z"/><path transform="translate(74.7375,0) scale(0.0125,-0.0125)" d="M81 -13Q48 -13 30.5 11.0Q13 35 20 91Q28 144 55.0 198.0Q82 252 120.5 298.0Q159 344 203.0 371.5Q247 399 287 399Q306 399 325.0 392.0Q344 385 357.5 369.5Q371 354 373 328L325 357Q339 359 356.0 373.5Q373 388 381 407Q383 410 388.5 408.5Q394 407 393 405L335 89Q325 34 348 34Q359 34 375.5 46.0Q392 58 411 77Q414 80 418.0 76.0Q422 72 419 69Q387 32 360.0 11.5Q333 -9 307 -9Q280 -9 272.0 13.5Q264 36 273 89L297 229L315 246Q288 168 248.5 109.5Q209 51 165.5 19.0Q122 -13 81 -13ZM126 44Q153 44 181.0 64.5Q209 85 234.5 119.0Q260 153 278.5 193.0Q297 233 304 269Q312 309 297.5 334.5Q283 360 248 359Q215 359 182.0 331.0Q149 303 123.0 255.5Q97 208 88 147Q80 93 90.0 68.5Q100 44 126 44Z"/><path transform="translate(83.125,0) scale(0.0125,-0.0125)" d="M-38 -275Q-77 -275 -95.0 -260.5Q-113 -246 -110 -227Q-108 -212 -97.0 -203.0Q-86 -194 -70 -194Q-52 -194 -44.5 -203.5Q-37 -213 -34.5 -225.0Q-32 -237 -27.5 -246.5Q-23 -256 -11 -256Q0 -256 8.0 -241.0Q16 -226 25.0 -181.0Q34 -136 47 -47L98 306Q102 331 99.5 342.5Q97 354 84.0 357.0Q71 360 44 360Q40 360 41.0 367.0Q42 374 45 374Q80 374 95.0 383.5Q110 393 114 418Q129 509 146.5 568.5Q164 628 187.5 662.5Q211 697 243.5 711.5Q276 726 321 726Q360 726 380.5 710.0Q401 694 398 672Q395 656 384.0 647.5Q373 639 359 639Q339 639 331.5 649.5Q324 660 320.0 674.0Q316 688 310.5 698.5Q305 709 289 709Q252 709 226.0 641.0Q200 573 180 439L113 -21Q99 -116 80.0 -172.0Q61 -228 32.5 -251.5Q4 -275 -38 -275ZM245 341Q237 342 219.0 345.0Q201 348 178.0 350.0Q155 352 133 352L135 376Q157 376 186.0 378.0Q215 380 239.5 382.0Q264 384 271 384Q276 384 277.5 381.0Q279 378 278 374Q277 366 266.5 353.0Q256 340 245 341Z"/><path transform="translate(86.425,0) scale(0.0125,-0.0125)" d="M155 -14Q105 -14 73.5 14.0Q42 42 31.5 89.0Q21 136 31 193Q43 252 74.0 298.5Q105 345 149.5 372.0Q194 399 245 399Q298 399 330.0 371.0Q362 343 372.5 296.0Q383 249 372 193Q359 128 325.0 81.5Q291 35 246.0 10.5Q201 -14 155 -14ZM190 11Q228 11 259.0 47.5Q290 84 302 149Q309 189 307.5 228.5Q306 268 295.0 301.5Q284 335 264.0 355.0Q244 375 214 375Q177 375 145.5 339.0Q114 303 101 236Q93 195 95.0 155.5Q97 116 108.5 83.0Q120 50 140.5 30.5Q161 11 190 11Z"/><path transform="translate(91.4375,0) scale(0.0125,-0.0125)" d="M118 9 108 10Q117 57 131.0 110.0Q145 163 163.0 213.5Q181 264 202.0 305.0Q223 346 245.5 370.5Q268 395 292 395Q306 395 320.5 387.5Q335 380 344.0 367.0Q353 354 350 338Q348 325 338.5 316.0Q329 307 314 307Q299 307 290.5 315.0Q282 323 275.5 331.0Q269 339 258 339Q245 339 229.0 316.0Q213 293 196.0 256.0Q179 219 163.5 174.5Q148 130 136.0 86.5Q124 43 118 9ZM79 -8Q63 -8 58.0 -6.0Q53 -4 53 -1Q53 2 58.5 26.0Q64 50 68 74L104 271Q110 304 108.5 321.0Q107 338 101.0 345.5Q95 353 86 353Q74 353 58.5 341.5Q43 330 27 315Q24 312 20.0 316.0Q16 320 19 323Q51 360 78.0 377.5Q105 395 131 395Q150 395 160.5 384.0Q171 373 172.5 347.0Q174 321 166 276L118 9Q115 -8 79 -8Z"/><path transform="translate(95.75,0) scale(0.0125,-0.0125)" d="M548 -9Q520 -9 513.0 14.0Q506 37 515 89L544 248Q553 302 546.0 328.5Q539 355 514 355Q485 355 452.5 315.5Q420 276 390.5 198.5Q361 121 341 9L327 10Q347 128 381.5 216.0Q416 304 460.0 351.5Q504 399 552 399Q592 399 606.5 368.0Q621 337 608 267L576 89Q571 59 575.5 46.5Q580 34 591 34Q602 34 617.5 46.0Q633 58 653 77Q657 81 661.0 77.0Q665 73 661 69Q629 32 602.0 11.5Q575 -9 548 -9ZM81 -8Q65 -8 60.0 -6.0Q55 -4 55 -1Q55 2 60.5 24.5Q66 47 70 71L111 297Q121 353 95 353Q84 353 67.0 341.5Q50 330 29 309Q26 305 22.0 309.5Q18 314 21 317Q56 357 84.5 376.0Q113 395 140 395Q167 395 174.5 373.0Q182 351 173 302L121 9Q117 -8 81 -8ZM302 -8Q286 -8 281.0 -6.0Q276 -4 276 -1Q276 2 281.5 26.0Q287 50 291 74L324 249Q332 303 324.5 329.0Q317 355 293 355Q264 355 231.0 314.0Q198 273 169.0 196.0Q140 119 121 9L106 10Q126 127 160.5 214.5Q195 302 239.0 350.5Q283 399 332 399Q370 399 385.5 368.5Q401 338 388 268L341 9Q339 -8 302 -8Z"/><path transform="translate(104.2375,0) scale(0.0125,-0.0125)" d="M81 -13Q48 -13 30.5 11.0Q13 35 20 91Q28 144 55.0 198.0Q82 252 120.5 298.0Q159 344 203.0 371.5Q247 399 287 399Q306 399 325.0 392.0Q344 385 357.5 369.5Q371 354 373 328L325 357Q339 359 356.0 373.5Q373 388 381 407Q383 410 388.5 408.5Q394 407 393 405L335 89Q325 34 348 34Q359 34 375.5 46.0Q392 58 411 77Q414 80 418.0 76.0Q422 72 419 69Q387 32 360.0 11.5Q333 -9 307 -9Q280 -9 272.0 13.5Q264 36 273 89L297 229L315 246Q288 168 248.5 109.5Q209 51 165.5 19.0Q122 -13 81 -13ZM126 44Q153 44 181.0 64.5Q209 85 234.5 119.0Q260 153 278.5 193.0Q297 233 304 269Q312 309 297.5 334.5Q283 360 248 359Q215 359 182.0 331.0Q149 303 123.0 255.5Q97 208 88 147Q80 93 90.0 68.5Q100 44 126 44Z"/><path transform="translate(109.7,0) scale(0.0125,-0.0125)" d="M158 -13Q114 -13 86.5 6.5Q59 26 44.5 57.5Q30 89 27.5 127.0Q25 165 33 202Q45 264 80.0 308.0Q115 352 160.5 375.5Q206 399 250 399Q274 399 295.0 392.0Q316 385 328.5 371.0Q341 357 339 337Q338 322 328.0 311.5Q318 301 300 301Q282 301 273.0 312.0Q264 323 260 337Q256 350 246.0 362.5Q236 375 212 375Q184 375 162.0 356.5Q140 338 126.0 306.0Q112 274 104 234Q95 179 101.5 131.5Q108 84 133.5 55.0Q159 26 206 26Q235 26 261.0 39.0Q287 52 306 67Q309 69 313.0 65.0Q317 61 314 58Q275 21 235.0 4.0Q195 -13 158 -13ZM108 -275Q81 -275 61.5 -262.5Q42 -250 46 -226Q48 -214 57.0 -207.5Q66 -201 78 -201Q93 -201 99.5 -209.5Q106 -218 110.0 -228.5Q114 -239 119.5 -247.5Q125 -256 137 -256Q164 -256 170 -223Q172 -205 160.0 -183.0Q148 -161 128 -138Q115 -122 116.0 -102.0Q117 -82 128 -60L157 0H171Q160 -24 159.0 -41.5Q158 -59 165.5 -73.5Q173 -88 185 -104Q202 -127 211.5 -146.5Q221 -166 217 -188Q214 -205 201.0 -225.5Q188 -246 165.0 -260.5Q142 -275 108 -275Z"/><path transform="translate(114.025,0) scale(0.0125,-0.0125)" d="M81 -13Q48 -13 30.5 11.0Q13 35 20 91Q28 144 55.0 198.0Q82 252 120.5 298.0Q159 344 203.0 371.5Q247 399 287 399Q306 399 325.0 392.0Q344 385 357.5 369.5Q371 354 373 328L325 357Q339 359 356.0 373.5Q373 388 381 407Q383 410 388.5 408.5Q394 407 393 405L335 89Q325 34 348 34Q359 34 375.5 46.0Q392 58 411 77Q414 80 418.0 76.0Q422 72 419 69Q387 32 360.0 11.5Q333 -9 307 -9Q280 -9 272.0 13.5Q264 36 273 89L297 229L315 246Q288 168 248.5 109.5Q209 51 165.5 19.0Q122 -13 81 -13ZM126 44Q153 44 181.0 64.5Q209 85 234.5 119.0Q260 153 278.5 193.0Q297 233 304 269Q312 309 297.5 334.5Q283 360 248 359Q215 359 182.0 331.0Q149 303 123.0 255.5Q97 208 88 147Q80 93 90.0 68.5Q100 44 126 44ZM167 477Q165 476 161.5 478.5Q158 481 160 484Q169 496 183.0 512.0Q197 528 214.0 539.5Q231 551 251 551Q267 551 286.5 545.0Q306 539 328.5 533.0Q351 527 374 527Q395 527 406.5 534.5Q418 542 430 554Q432 556 435.5 552.5Q439 549 437 547Q408 506 390.0 492.5Q372 479 351 479Q330 479 309.5 485.5Q289 492 268.0 498.0Q247 504 222 504Q199 504 189.0 496.0Q179 488 167 477Z"/><path transform="translate(119.48750000000001,0) scale(0.0125,-0.0125)" d="M155 -14Q105 -14 73.5 14.0Q42 42 31.5 89.0Q21 136 31 193Q43 252 74.0 298.5Q105 345 149.5 372.0Q194 399 245 399Q298 399 330.0 371.0Q362 343 372.5 296.0Q383 249 372 193Q359 128 325.0 81.5Q291 35 246.0 10.5Q201 -14 155 -14ZM190 11Q228 11 259.0 47.5Q290 84 302 149Q309 189 307.5 228.5Q306 268 295.0 301.5Q284 335 264.0 355.0Q244 375 214 375Q177 375 145.5 339.0Q114 303 101 236Q93 195 95.0 155.5Q97 116 108.5 83.0Q120 50 140.5 30.5Q161 11 190 11Z"/><path transform="translate(127.42500000000001,0) scale(0.0125,-0.0125)" d="M108 -9Q81 -9 72.5 13.5Q64 36 75 89L116 297Q127 353 99 353Q88 353 71.0 341.5Q54 330 34 309Q31 305 26.5 309.5Q22 314 26 317Q61 357 89.0 376.0Q117 395 143 395Q171 395 179.0 373.0Q187 351 177 302L136 89Q130 59 135.0 46.5Q140 34 151 34Q162 34 178.5 45.5Q195 57 214 76Q218 80 222.0 75.5Q226 71 222 68Q190 30 162.5 10.5Q135 -9 108 -9ZM172 509Q150 509 137.5 521.0Q125 533 125 556Q125 577 137.5 589.0Q150 601 172 601Q195 601 207.0 589.0Q219 577 219 556Q219 509 172 509Z"/><path transform="translate(130.51250000000002,0) scale(0.0125,-0.0125)" d="M337 -9Q309 -9 302.0 14.0Q295 37 304 89L333 248Q355 355 300 355Q269 355 235.0 314.5Q201 274 171.0 197.0Q141 120 121 9L107 10Q128 127 162.5 214.5Q197 302 242.5 350.5Q288 399 338 399Q381 399 396.0 368.0Q411 337 398 267L365 89Q360 59 365.0 46.5Q370 34 381 34Q392 34 407.5 46.0Q423 58 443 77Q446 81 450.0 77.0Q454 73 451 69Q419 32 392.0 11.5Q365 -9 337 -9ZM82 -8Q66 -8 60.5 -6.0Q55 -4 55 -1Q55 2 60.5 25.0Q66 48 70 74L111 297Q121 353 95 353Q84 353 67.0 341.5Q50 330 29 309Q26 305 22.0 309.5Q18 314 21 317Q56 357 84.5 376.0Q113 395 140 395Q167 395 174.5 373.0Q182 351 173 302L121 9Q118 -8 82 -8Z"/><path transform="translate(136.3625,0) scale(0.0125,-0.0125)" d="M103 -11Q63 -11 34.0 8.0Q5 27 9 54Q11 70 21.5 78.0Q32 86 44 86Q59 86 67.0 75.0Q75 64 82.5 50.5Q90 37 102.5 26.0Q115 15 139 15Q163 15 177.0 28.5Q191 42 194 69Q199 100 185.0 122.5Q171 145 148.5 163.5Q126 182 104.0 200.5Q82 219 69.5 242.0Q57 265 63 297Q68 326 88.5 348.5Q109 371 138.5 383.5Q168 396 201 396Q240 396 265.0 381.0Q290 366 287 343Q284 327 273.0 319.0Q262 311 252 311Q234 311 225.5 320.5Q217 330 210.5 342.0Q204 354 193.5 363.0Q183 372 162 372Q144 372 131.0 362.0Q118 352 116 335Q111 306 124.5 284.0Q138 262 160.5 243.0Q183 224 205.5 204.5Q228 185 241.0 161.0Q254 137 249 105Q244 77 224.0 50.0Q204 23 173.0 6.0Q142 -11 103 -11Z"/><path transform="translate(140.1875,0) scale(0.0125,-0.0125)" d="M123 -12Q102 -12 83.5 -4.5Q65 3 56.0 23.0Q47 43 53 80L95 306Q102 342 96.0 351.0Q90 360 61 360Q57 360 58.0 367.0Q59 374 62 374Q101 374 127.5 397.5Q154 421 166 454Q167 458 175.5 457.0Q184 456 183 453L121 106Q114 67 125.5 49.0Q137 31 168 31Q194 31 216.5 43.0Q239 55 261 73Q263 75 267.0 71.0Q271 67 269 65Q223 24 188.5 6.0Q154 -12 123 -12ZM269 340Q267 340 247.5 343.0Q228 346 201.5 348.5Q175 351 150 351L152 376Q180 376 209.5 378.0Q239 380 262.5 382.0Q286 384 295 384Q299 384 301.0 381.0Q303 378 302 374Q300 366 290.0 353.0Q280 340 269 340Z"/><path transform="translate(143.9,0) scale(0.0125,-0.0125)" d="M108 -9Q81 -9 72.5 13.5Q64 36 75 89L116 297Q127 353 99 353Q88 353 71.0 341.5Q54 330 34 309Q31 305 26.5 309.5Q22 314 26 317Q61 357 89.0 376.0Q117 395 143 395Q171 395 179.0 373.0Q187 351 177 302L136 89Q130 59 135.0 46.5Q140 34 151 34Q162 34 178.5 45.5Q195 57 214 76Q218 80 222.0 75.5Q226 71 222 68Q190 30 162.5 10.5Q135 -9 108 -9ZM172 509Q150 509 137.5 521.0Q125 533 125 556Q125 577 137.5 589.0Q150 601 172 601Q195 601 207.0 589.0Q219 577 219 556Q219 509 172 509Z"/><path transform="translate(146.9875,0) scale(0.0125,-0.0125)" d="M123 -12Q102 -12 83.5 -4.5Q65 3 56.0 23.0Q47 43 53 80L95 306Q102 342 96.0 351.0Q90 360 61 360Q57 360 58.0 367.0Q59 374 62 374Q101 374 127.5 397.5Q154 421 166 454Q167 458 175.5 457.0Q184 456 183 453L121 106Q114 67 125.5 49.0Q137 31 168 31Q194 31 216.5 43.0Q239 55 261 73Q263 75 267.0 71.0Q271 67 269 65Q223 24 188.5 6.0Q154 -12 123 -12ZM269 340Q267 340 247.5 343.0Q228 346 201.5 348.5Q175 351 150 351L152 376Q180 376 209.5 378.0Q239 380 262.5 382.0Q286 384 295 384Q299 384 301.0 381.0Q303 378 302 374Q300 366 290.0 353.0Q280 340 269 340Z"/><path transform="translate(150.70000000000002,0) scale(0.0125,-0.0125)" d="M130 -13Q88 -13 72.0 18.5Q56 50 70 119L106 297Q111 327 106.5 339.5Q102 352 90 352Q80 352 64.0 340.0Q48 328 29 309Q25 305 21.0 309.0Q17 313 21 317Q54 355 80.5 375.0Q107 395 134 395Q160 395 169.0 373.0Q178 351 167 297L135 138Q123 83 132.5 57.0Q142 31 169 31Q200 31 233.5 71.5Q267 112 297.0 189.0Q327 266 347 377L361 376Q342 259 306.5 171.5Q271 84 226.0 35.5Q181 -13 130 -13ZM329 -9Q302 -9 294.5 13.0Q287 35 296 84L347 377Q350 394 387 394Q403 394 408.0 392.0Q413 390 413 387Q413 384 408.0 361.0Q403 338 398 312L357 89Q348 33 373 33Q384 33 401.0 44.5Q418 56 439 77Q442 81 446.0 76.5Q450 72 447 69Q412 29 384.0 10.0Q356 -9 329 -9Z"/><path transform="translate(156.55,0) scale(0.0125,-0.0125)" d="M158 -13Q114 -13 86.5 6.5Q59 26 44.5 57.5Q30 89 27.5 127.0Q25 165 33 202Q45 264 80.0 308.0Q115 352 160.5 375.5Q206 399 250 399Q274 399 295.0 392.0Q316 385 328.5 371.0Q341 357 339 337Q338 322 328.0 311.5Q318 301 300 301Q282 301 273.0 312.0Q264 323 260 337Q256 350 246.0 362.5Q236 375 212 375Q184 375 162.0 356.5Q140 338 126.0 306.0Q112 274 104 234Q95 179 101.5 131.5Q108 84 133.5 55.0Q159 26 206 26Q235 26 261.0 39.0Q287 52 306 67Q309 69 313.0 65.0Q317 61 314 58Q275 21 235.0 4.0Q195 -13 158 -13Z"/><path transform="translate(160.875,0) scale(0.0125,-0.0125)" d="M108 -9Q81 -9 72.5 13.5Q64 36 75 89L116 297Q127 353 99 353Q88 353 71.0 341.5Q54 330 34 309Q31 305 26.5 309.5Q22 314 26 317Q61 357 89.0 376.0Q117 395 143 395Q171 395 179.0 373.0Q187 351 177 302L136 89Q130 59 135.0 46.5Q140 34 151 34Q162 34 178.5 45.5Q195 57 214 76Q218 80 222.0 75.5Q226 71 222 68Q190 30 162.5 10.5Q135 -9 108 -9ZM172 509Q150 509 137.5 521.0Q125 533 125 556Q125 577 137.5 589.0Q150 601 172 601Q195 601 207.0 589.0Q219 577 219 556Q219 509 172 509Z"/><path transform="translate(163.9625,0) scale(0.0125,-0.0125)" d="M155 -14Q105 -14 73.5 14.0Q42 42 31.5 89.0Q21 136 31 193Q43 252 74.0 298.5Q105 345 149.5 372.0Q194 399 245 399Q298 399 330.0 371.0Q362 343 372.5 296.0Q383 249 372 193Q359 128 325.0 81.5Q291 35 246.0 10.5Q201 -14 155 -14ZM190 11Q228 11 259.0 47.5Q290 84 302 149Q309 189 307.5 228.5Q306 268 295.0 301.5Q284 335 264.0 355.0Q244 375 214 375Q177 375 145.5 339.0Q114 303 101 236Q93 195 95.0 155.5Q97 116 108.5 83.0Q120 50 140.5 30.5Q161 11 190 11Z"/><path transform="translate(168.975,0) scale(0.0125,-0.0125)" d="M337 -9Q309 -9 302.0 14.0Q295 37 304 89L333 248Q355 355 300 355Q269 355 235.0 314.5Q201 274 171.0 197.0Q141 120 121 9L107 10Q128 127 162.5 214.5Q197 302 242.5 350.5Q288 399 338 399Q381 399 396.0 368.0Q411 337 398 267L365 89Q360 59 365.0 46.5Q370 34 381 34Q392 34 407.5 46.0Q423 58 443 77Q446 81 450.0 77.0Q454 73 451 69Q419 32 392.0 11.5Q365 -9 337 -9ZM82 -8Q66 -8 60.5 -6.0Q55 -4 55 -1Q55 2 60.5 25.0Q66 48 70 74L111 297Q121 353 95 353Q84 353 67.0 341.5Q50 330 29 309Q26 305 22.0 309.5Q18 314 21 317Q56 357 84.5 376.0Q113 395 140 395Q167 395 174.5 373.0Q182 351 173 302L121 9Q118 -8 82 -8Z"/><path transform="translate(174.825,0) scale(0.0125,-0.0125)" d="M81 -13Q48 -13 30.5 11.0Q13 35 20 91Q28 144 55.0 198.0Q82 252 120.5 298.0Q159 344 203.0 371.5Q247 399 287 399Q306 399 325.0 392.0Q344 385 357.5 369.5Q371 354 373 328L325 357Q339 359 356.0 373.5Q373 388 381 407Q383 410 388.5 408.5Q394 407 393 405L335 89Q325 34 348 34Q359 34 375.5 46.0Q392 58 411 77Q414 80 418.0 76.0Q422 72 419 69Q387 32 360.0 11.5Q333 -9 307 -9Q280 -9 272.0 13.5Q264 36 273 89L297 229L315 246Q288 168 248.5 109.5Q209 51 165.5 19.0Q122 -13 81 -13ZM126 44Q153 44 181.0 64.5Q209 85 234.5 119.0Q260 153 278.5 193.0Q297 233 304 269Q312 309 297.5 334.5Q283 360 248 359Q215 359 182.0 331.0Q149 303 123.0 255.5Q97 208 88 147Q80 93 90.0 68.5Q100 44 126 44Z"/><path transform="translate(180.2875,0) scale(0.0125,-0.0125)" d="M92 -9Q63 -9 56.0 14.0Q49 37 58 89L155 610Q162 649 148.5 658.5Q135 668 91 646Q87 645 84.5 651.0Q82 657 86 658L223 725Q228 727 232.0 723.0Q236 719 235 717L120 89Q114 59 119.0 46.5Q124 34 135 34Q146 34 161.5 46.0Q177 58 197 77Q201 81 205.0 77.0Q209 73 205 69Q173 32 146.0 11.5Q119 -9 92 -9Z"/><path transform="translate(183.2875,0) scale(0.0125,-0.0125)" d="M71 -10Q49 -10 36.5 2.5Q24 15 24 37Q24 58 36.5 70.0Q49 82 71 82Q93 82 105.0 70.0Q117 58 117 37Q117 -10 71 -10Z"/></g></svg>