<?xml version="1.0" encoding="UTF-8"?><svg xmlns="http://www.w3.org/2000/svg" viewBox="0 0 600 600" preserveAspectRatio="xMidYMid meet"><circle cx="300" cy="300" r="280" fill="none" stroke="#B8952E" stroke-width="4"/><circle cx="300" cy="300" r="265" fill="none" stroke="#B8952E" stroke-width="1.5"/><circle cx="300" cy="300" r="195" fill="none" stroke="#B8952E" stroke-width="1" stroke-opacity="0.55"/><g fill="#11365E"><path d="M61 12V688Q61 693 64.5 696.5Q68 700 73 700H190Q195 700 198.5 696.5Q202 693 202 688V12Q202 7 198.5 3.5Q195 0 190 0H73Q68 0 64.5 3.5Q61 7 61 12Z" transform="translate(117.03,144.69) rotate(-49.68) translate(-5.42,0) scale(0.02600,-0.02600)"/><path d="M475 700H592Q597 700 600.5 696.5Q604 693 604 688V12Q604 7 600.5 3.5Q597 0 592 0H479Q469 0 465 8L206 436Q204 439 202.0 438.5Q200 438 200 434L202 12Q202 7 198.5 3.5Q195 0 190 0H73Q68 0 64.5 3.5Q61 7 61 12V688Q61 693 64.5 696.5Q68 700 73 700H186Q196 700 200 692L458 266Q460 263 462.0 263.5Q464 264 464 268L463 688Q463 693 466.5 696.5Q470 700 475 700Z" transform="translate(127.82,132.80) rotate(-45.84) translate(-10.64,0) scale(0.02600,-0.02600)"/><path d="M36 201V223Q36 228 39.5 231.5Q43 235 48 235H162Q167 235 170.5 231.5Q174 228 174 223V208Q174 168 211.0 140.5Q248 113 311 113Q364 113 390.0 135.5Q416 158 416 191Q416 215 400.0 231.5Q384 248 356.5 260.5Q329 273 269 295Q202 318 155.5 342.0Q109 366 77.5 407.5Q46 449 46 510Q46 570 77.0 615.0Q108 660 163.0 684.0Q218 708 290 708Q366 708 425.5 681.0Q485 654 518.5 605.5Q552 557 552 493V478Q552 473 548.5 469.5Q545 466 540 466H425Q420 466 416.5 469.5Q413 473 413 478V486Q413 528 378.5 557.5Q344 587 284 587Q237 587 210.5 567.0Q184 547 184 512Q184 487 199.5 470.0Q215 453 245.5 439.5Q276 426 340 403Q411 377 451.5 357.0Q492 337 524.5 297.5Q557 258 557 195Q557 101 488.0 46.5Q419 -8 301 -8Q221 -8 161.0 17.5Q101 43 68.5 90.5Q36 138 36 201Z" transform="translate(142.62,118.80) rotate(-40.98) translate(-9.73,0) scale(0.02600,-0.02600)"/><path d="M556 688V590Q556 585 552.5 581.5Q549 578 544 578H365Q360 578 360 573V12Q360 7 356.5 3.5Q353 0 348 0H231Q226 0 222.5 3.5Q219 7 219 12V573Q219 578 214 578H40Q35 578 31.5 581.5Q28 585 28 590V688Q28 693 31.5 696.5Q35 700 40 700H544Q549 700 552.5 696.5Q556 693 556 688Z" transform="translate(157.72,106.72) rotate(-36.36) translate(-9.61,0) scale(0.02600,-0.02600)"/><path d="M61 12V688Q61 693 64.5 696.5Q68 700 73 700H190Q195 700 198.5 696.5Q202 693 202 688V12Q202 7 198.5 3.5Q195 0 190 0H73Q68 0 64.5 3.5Q61 7 61 12Z" transform="translate(170.09,98.20) rotate(-32.77) translate(-5.42,0) scale(0.02600,-0.02600)"/><path d="M556 688V590Q556 585 552.5 581.5Q549 578 544 578H365Q360 578 360 573V12Q360 7 356.5 3.5Q353 0 348 0H231Q226 0 222.5 3.5Q219 7 219 12V573Q219 578 214 578H40Q35 578 31.5 581.5Q28 585 28 590V688Q28 693 31.5 696.5Q35 700 40 700H544Q549 700 552.5 696.5Q556 693 556 688Z" transform="translate(182.97,90.47) rotate(-29.18) translate(-9.61,0) scale(0.02600,-0.02600)"/><path d="M56 232V688Q56 693 59.5 696.5Q63 700 68 700H185Q190 700 193.5 696.5Q197 693 197 688V231Q197 178 229.5 145.5Q262 113 315 113Q368 113 400.5 145.5Q433 178 433 231V688Q433 693 436.5 696.5Q440 700 445 700H562Q567 700 570.5 696.5Q574 693 574 688V232Q574 161 541.5 106.5Q509 52 450.5 22.0Q392 -8 315 -8Q238 -8 179.5 22.0Q121 52 88.5 106.5Q56 161 56 232Z" transform="translate(200.62,81.54) rotate(-24.46) translate(-10.18,0) scale(0.02600,-0.02600)"/><path d="M556 688V590Q556 585 552.5 581.5Q549 578 544 578H365Q360 578 360 573V12Q360 7 356.5 3.5Q353 0 348 0H231Q226 0 222.5 3.5Q219 7 219 12V573Q219 578 214 578H40Q35 578 31.5 581.5Q28 585 28 590V688Q28 693 31.5 696.5Q35 700 40 700H544Q549 700 552.5 696.5Q556 693 556 688Z" transform="translate(218.94,74.10) rotate(-19.74) translate(-9.61,0) scale(0.02600,-0.02600)"/><path d="M47 243V457Q47 531 80.0 588.0Q113 645 172.5 676.5Q232 708 310 708Q389 708 448.5 676.5Q508 645 541.0 588.0Q574 531 574 457V243Q574 168 541.0 110.0Q508 52 448.5 20.5Q389 -11 310 -11Q232 -11 172.5 21.0Q113 53 80.0 110.5Q47 168 47 243ZM433 238V458Q433 516 399.5 551.5Q366 587 310 587Q255 587 221.5 551.5Q188 516 188 458V238Q188 180 221.5 145.0Q255 110 310 110Q365 110 399.0 145.0Q433 180 433 238Z" transform="translate(237.72,68.22) rotate(-15.04) translate(-10.07,0) scale(0.02600,-0.02600)"/><path d="M475 700H592Q597 700 600.5 696.5Q604 693 604 688V12Q604 7 600.5 3.5Q597 0 592 0H479Q469 0 465 8L206 436Q204 439 202.0 438.5Q200 438 200 434L202 12Q202 7 198.5 3.5Q195 0 190 0H73Q68 0 64.5 3.5Q61 7 61 12V688Q61 693 64.5 696.5Q68 700 73 700H186Q196 700 200 692L458 266Q460 263 462.0 263.5Q464 264 464 268L463 688Q463 693 466.5 696.5Q470 700 475 700Z" transform="translate(276.15,61.19) rotate(-5.70) translate(-10.64,0) scale(0.02600,-0.02600)"/><path d="M556 688V590Q556 585 552.5 581.5Q549 578 544 578H365Q360 578 360 573V12Q360 7 356.5 3.5Q353 0 348 0H231Q226 0 222.5 3.5Q219 7 219 12V573Q219 578 214 578H40Q35 578 31.5 581.5Q28 585 28 590V688Q28 693 31.5 696.5Q35 700 40 700H544Q549 700 552.5 696.5Q556 693 556 688Z" transform="translate(296.36,60.03) rotate(-0.87) translate(-9.61,0) scale(0.02600,-0.02600)"/><path d="M47 235V466Q47 538 79.0 593.0Q111 648 170.0 678.0Q229 708 307 708Q384 708 442.5 679.5Q501 651 533.5 598.5Q566 546 566 477Q566 468 554 466L437 459H435Q425 459 425 470Q425 523 392.5 555.0Q360 587 307 587Q253 587 220.5 555.0Q188 523 188 470V229Q188 177 220.5 145.0Q253 113 307 113Q360 113 392.5 145.0Q425 177 425 229Q425 240 437 240L554 235Q559 235 562.5 232.0Q566 229 566 225Q566 156 533.5 103.0Q501 50 442.5 21.0Q384 -8 307 -8Q229 -8 170.0 22.5Q111 53 79.0 108.0Q47 163 47 235Z" transform="translate(315.86,60.52) rotate(3.79) translate(-9.90,0) scale(0.02600,-0.02600)"/><path d="M61 12V688Q61 693 64.5 696.5Q68 700 73 700H323Q398 700 454.5 673.5Q511 647 542.0 599.0Q573 551 573 488V212Q573 149 542.0 101.0Q511 53 454.5 26.5Q398 0 323 0H73Q68 0 64.5 3.5Q61 7 61 12ZM207 121H328Q374 121 402.5 152.0Q431 183 432 235V465Q432 517 403.5 548.0Q375 579 327 579H207Q202 579 202 574V126Q202 121 207 121Z" transform="translate(353.75,66.10) rotate(12.94) translate(-10.03,0) scale(0.02600,-0.02600)"/><path d="M47 243V457Q47 531 80.0 588.0Q113 645 172.5 676.5Q232 708 310 708Q389 708 448.5 676.5Q508 645 541.0 588.0Q574 531 574 457V243Q574 168 541.0 110.0Q508 52 448.5 20.5Q389 -11 310 -11Q232 -11 172.5 21.0Q113 53 80.0 110.5Q47 168 47 243ZM433 238V458Q433 516 399.5 551.5Q366 587 310 587Q255 587 221.5 551.5Q188 516 188 458V238Q188 180 221.5 145.0Q255 110 310 110Q365 110 399.0 145.0Q433 180 433 238Z" transform="translate(373.13,71.41) rotate(17.74) translate(-10.07,0) scale(0.02600,-0.02600)"/><path d="M476 359Q571 310 571 196Q571 99 505.0 49.5Q439 0 332 0H73Q68 0 64.5 3.5Q61 7 61 12V688Q61 693 64.5 696.5Q68 700 73 700H324Q561 700 561 508Q561 408 476 365Q470 362 476 359ZM202 574V418Q202 413 207 413H324Q371 413 397.0 435.0Q423 457 423 495Q423 534 397.0 556.5Q371 579 324 579H207Q202 579 202 574ZM430 210Q430 251 404.0 274.5Q378 298 331 298H207Q202 298 202 293V127Q202 122 207 122H332Q378 122 404.0 145.5Q430 169 430 210Z" transform="translate(408.74,86.05) rotate(26.94) translate(-10.06,0) scale(0.02600,-0.02600)"/><path d="M431 9 306 286Q304 290 300 290H207Q202 290 202 285V12Q202 7 198.5 3.5Q195 0 190 0H73Q68 0 64.5 3.5Q61 7 61 12V688Q61 693 64.5 696.5Q68 700 73 700H359Q423 700 471.5 674.0Q520 648 546.5 600.0Q573 552 573 489Q573 421 539.0 372.5Q505 324 444 304Q439 302 441 297L577 14Q579 10 579 8Q579 0 568 0H445Q435 0 431 9ZM202 574V403Q202 398 207 398H338Q380 398 406.5 423.0Q433 448 433 488Q433 528 406.5 553.5Q380 579 338 579H207Q202 579 202 574Z" transform="translate(426.20,95.86) rotate(31.73) translate(-9.98,0) scale(0.02600,-0.02600)"/><path d="M493 10 463 108Q461 112 458 112H212Q209 112 207 108L178 10Q175 0 165 0H38Q32 0 29.0 3.5Q26 7 28 14L244 690Q247 700 257 700H414Q424 700 427 690L643 14Q644 12 644 9Q644 0 633 0H506Q496 0 493 10ZM247 221H423Q429 221 427 227L337 524Q336 528 334.0 527.5Q332 527 331 524L243 227Q242 221 247 221Z" transform="translate(443.32,107.49) rotate(36.67) translate(-10.72,0) scale(0.02600,-0.02600)"/><path d="M36 201V223Q36 228 39.5 231.5Q43 235 48 235H162Q167 235 170.5 231.5Q174 228 174 223V208Q174 168 211.0 140.5Q248 113 311 113Q364 113 390.0 135.5Q416 158 416 191Q416 215 400.0 231.5Q384 248 356.5 260.5Q329 273 269 295Q202 318 155.5 342.0Q109 366 77.5 407.5Q46 449 46 510Q46 570 77.0 615.0Q108 660 163.0 684.0Q218 708 290 708Q366 708 425.5 681.0Q485 654 518.5 605.5Q552 557 552 493V478Q552 473 548.5 469.5Q545 466 540 466H425Q420 466 416.5 469.5Q413 473 413 478V486Q413 528 378.5 557.5Q344 587 284 587Q237 587 210.5 567.0Q184 547 184 512Q184 487 199.5 470.0Q215 453 245.5 439.5Q276 426 340 403Q411 377 451.5 357.0Q492 337 524.5 297.5Q557 258 557 195Q557 101 488.0 46.5Q419 -8 301 -8Q221 -8 161.0 17.5Q101 43 68.5 90.5Q36 138 36 201Z" transform="translate(459.19,120.40) rotate(41.55) translate(-9.73,0) scale(0.02600,-0.02600)"/><path d="M61 12V688Q61 693 64.5 696.5Q68 700 73 700H190Q195 700 198.5 696.5Q202 693 202 688V12Q202 7 198.5 3.5Q195 0 190 0H73Q68 0 64.5 3.5Q61 7 61 12Z" transform="translate(470.21,130.80) rotate(45.17) translate(-5.42,0) scale(0.02600,-0.02600)"/><path d="M61 12V688Q61 693 64.5 696.5Q68 700 73 700H190Q195 700 198.5 696.5Q202 693 202 688V126Q202 121 207 121H534Q539 121 542.5 117.5Q546 114 546 109V12Q546 7 542.5 3.5Q539 0 534 0H73Q68 0 64.5 3.5Q61 7 61 12Z" transform="translate(480.35,141.65) rotate(48.72) translate(-9.44,0) scale(0.02600,-0.02600)"/></g><g fill="#11365E"><path d="M239 0H72Q62 0 62 10V690Q62 700 72 700H225Q316 700 367.5 652.5Q419 605 419 514Q419 406 342 365Q337 362 341 360Q381 336 403.5 293.0Q426 250 426 191Q426 100 374.5 50.0Q323 0 239 0ZM158 613V401Q158 397 162 397H226Q273 397 299.0 425.5Q325 454 325 505Q325 558 299.0 587.5Q273 617 226 617H162Q158 617 158 613ZM330 203Q330 261 304.0 293.5Q278 326 232 326H162Q158 326 158 322V88Q158 84 162 84H231Q277 84 303.5 115.0Q330 146 330 203Z" transform="translate(224.02,527.65) rotate(18.46) translate(-7.02,0) scale(0.02200,-0.02200)"/><path d="M328 8 236 306Q235 309 232 309H162Q158 309 158 305V10Q158 0 148 0H72Q62 0 62 10V690Q62 700 72 700H251Q302 700 341.0 675.0Q380 650 401.5 604.5Q423 559 423 501Q423 438 397.0 391.5Q371 345 326 324Q323 321 324 318L426 11L427 7Q427 0 418 0H340Q331 0 328 8ZM158 613V389Q158 385 162 385H236Q277 385 302.0 416.5Q327 448 327 500Q327 554 302.0 585.5Q277 617 236 617H162Q158 617 158 613Z" transform="translate(237.42,531.70) rotate(15.12) translate(-6.98,0) scale(0.02200,-0.02200)"/><path d="M325 9 303 124Q303 126 301.5 127.0Q300 128 298 128H135Q133 128 131.5 127.0Q130 126 130 124L109 9Q108 0 98 0H22Q17 0 14.5 3.0Q12 6 13 11L162 691Q164 700 173 700H262Q272 700 273 691L423 11V9Q423 0 414 0H336Q327 0 325 9ZM150 204H283Q286 204 286 208L218 563Q217 565 216.0 565.0Q215 565 214 563L147 208Q147 204 150 204Z" transform="translate(250.82,534.91) rotate(11.83) translate(-6.80,0) scale(0.02200,-0.02200)"/><path d="M38 171V197Q38 207 48 207H122Q132 207 132 197V176Q132 130 155.0 102.5Q178 75 214 75Q250 75 273.5 101.5Q297 128 297 171Q297 200 284.5 222.0Q272 244 251.5 261.5Q231 279 185 313Q134 351 105.0 378.0Q76 405 56.0 443.0Q36 481 36 532Q36 613 84.0 660.5Q132 708 209 708Q289 708 337.5 657.0Q386 606 386 523V498Q386 488 376 488H302Q292 488 292 498V525Q292 570 269.0 597.5Q246 625 209 625Q174 625 152.0 600.5Q130 576 130 532Q130 492 152.0 464.5Q174 437 237 391Q297 346 327.5 318.0Q358 290 374.5 256.5Q391 223 391 177Q391 93 342.0 42.5Q293 -8 214 -8Q135 -8 86.5 41.5Q38 91 38 171Z" transform="translate(264.08,537.30) rotate(8.61) translate(-6.69,0) scale(0.02200,-0.02200)"/><path d="M62 10V690Q62 700 72 700H148Q158 700 158 690V10Q158 0 148 0H72Q62 0 62 10ZM60 776 122 884Q127 891 134 891H195Q201 891 203.0 887.5Q205 884 202 879L128 770Q124 764 116 764H67Q61 764 59.0 767.5Q57 771 60 776Z" transform="translate(275.10,538.70) rotate(5.96) translate(-4.42,0) scale(0.02200,-0.02200)"/><path d="M62 10V690Q62 700 72 700H148Q158 700 158 690V87Q158 83 162 83H386Q396 83 396 73V10Q396 0 386 0H72Q62 0 62 10Z" transform="translate(285.96,539.59) rotate(3.35) translate(-6.48,0) scale(0.02200,-0.02200)"/><path d="M62 10V690Q62 700 72 700H148Q158 700 158 690V10Q158 0 148 0H72Q62 0 62 10Z" transform="translate(296.85,539.98) rotate(0.75) translate(-4.42,0) scale(0.02200,-0.02200)"/><path d="M325 9 303 124Q303 126 301.5 127.0Q300 128 298 128H135Q133 128 131.5 127.0Q130 126 130 124L109 9Q108 0 98 0H22Q17 0 14.5 3.0Q12 6 13 11L162 691Q164 700 173 700H262Q272 700 273 691L423 11V9Q423 0 414 0H336Q327 0 325 9ZM150 204H283Q286 204 286 208L218 563Q217 565 216.0 565.0Q215 565 214 563L147 208Q147 204 150 204Z" transform="translate(308.06,539.86) rotate(-1.92) translate(-6.80,0) scale(0.02200,-0.02200)"/><path d="M39 283Q39 311 57.0 329.0Q75 347 103 347Q131 347 149.0 329.0Q167 311 167 283Q167 255 149.0 237.0Q131 219 103 219Q75 219 57.0 237.0Q39 255 39 283Z" transform="translate(335.79,537.32) rotate(-8.58) translate(-4.27,0) scale(0.02200,-0.02200)"/><path d="M62 10V690Q62 700 72 700H236Q319 700 368.0 649.0Q417 598 417 511V189Q417 102 368.0 51.0Q319 0 236 0H72Q62 0 62 10ZM162 83 235 84Q273 84 296.0 113.5Q319 143 320 194V506Q320 557 297.0 587.0Q274 617 235 617H162Q158 617 158 613V87Q158 83 162 83Z" transform="translate(363.39,531.48) rotate(-15.31) translate(-7.16,0) scale(0.02200,-0.02200)"/><path d="M386 617H162Q158 617 158 613V396Q158 392 162 392H299Q309 392 309 382V319Q309 309 299 309H162Q158 309 158 305V10Q158 0 148 0H72Q62 0 62 10V690Q62 700 72 700H386Q396 700 396 690V627Q396 617 386 617Z" transform="translate(376.46,527.49) rotate(-18.58) translate(-6.51,0) scale(0.02200,-0.02200)"/></g><circle cx="28" cy="300" r="3" fill="#B8952E"/><circle cx="572" cy="300" r="3" fill="#B8952E"/><rect x="234.0" y="290.0" width="40" height="80" rx="6" fill="#11365E"/><g fill="#F4F1E8" transform="translate(248.015,335.76)"><path transform="translate(0,0) scale(0.018,-0.018)" d="M475 700H592Q597 700 600.5 696.5Q604 693 604 688V12Q604 7 600.5 3.5Q597 0 592 0H479Q469 0 465 8L206 436Q204 439 202.0 438.5Q200 438 200 434L202 12Q202 7 198.5 3.5Q195 0 190 0H73Q68 0 64.5 3.5Q61 7 61 12V688Q61 693 64.5 696.5Q68 700 73 700H186Q196 700 200 692L458 266Q460 263 462.0 263.5Q464 264 464 268L463 688Q463 693 466.5 696.5Q470 700 475 700Z"/></g><rect x="280.0" y="260.0" width="40" height="110" rx="6" fill="#8E2A1C"/><g fill="#F4F1E8" transform="translate(294.735,320.76)"><path transform="translate(0,0) scale(0.018,-0.018)" d="M556 688V590Q556 585 552.5 581.5Q549 578 544 578H365Q360 578 360 573V12Q360 7 356.5 3.5Q353 0 348 0H231Q226 0 222.5 3.5Q219 7 219 12V573Q219 578 214 578H40Q35 578 31.5 581.5Q28 585 28 590V688Q28 693 31.5 696.5Q35 700 40 700H544Q549 700 552.5 696.5Q556 693 556 688Z"/></g><rect x="326.0" y="230.0" width="40" height="140" rx="6" fill="#4A6A1F"/><g fill="#F4F1E8" transform="translate(340.528,305.76)"><path transform="translate(0,0) scale(0.018,-0.018)" d="M47 235V466Q47 538 79.0 593.0Q111 648 170.0 678.0Q229 708 307 708Q384 708 442.5 679.5Q501 651 533.5 598.5Q566 546 566 477Q566 468 554 466L437 459H435Q425 459 425 470Q425 523 392.5 555.0Q360 587 307 587Q253 587 220.5 555.0Q188 523 188 470V229Q188 177 220.5 145.0Q253 113 307 113Q360 113 392.5 145.0Q425 177 425 229Q425 240 437 240L554 235Q559 235 562.5 232.0Q566 229 566 225Q566 156 533.5 103.0Q501 50 442.5 21.0Q384 -8 307 -8Q229 -8 170.0 22.5Q111 53 79.0 108.0Q47 163 47 235Z"/></g><g fill="#B8952E" transform="translate(258.004,410)"><path transform="translate(0,0) scale(0.014,-0.014)" d="M387 617H162Q158 617 158 613V396Q158 392 162 392H300Q310 392 310 382V319Q310 309 300 309H162Q158 309 158 305V87Q158 83 162 83H387Q397 83 397 73V10Q397 0 387 0H72Q62 0 62 10V690Q62 700 72 700H387Q397 700 397 690V627Q397 617 387 617Z"/><path transform="translate(10.048,0) scale(0.014,-0.014)" d="M38 171V197Q38 207 48 207H122Q132 207 132 197V176Q132 130 155.0 102.5Q178 75 214 75Q250 75 273.5 101.5Q297 128 297 171Q297 200 284.5 222.0Q272 244 251.5 261.5Q231 279 185 313Q134 351 105.0 378.0Q76 405 56.0 443.0Q36 481 36 532Q36 613 84.0 660.5Q132 708 209 708Q289 708 337.5 657.0Q386 606 386 523V498Q386 488 376 488H302Q292 488 292 498V525Q292 570 269.0 597.5Q246 625 209 625Q174 625 152.0 600.5Q130 576 130 532Q130 492 152.0 464.5Q174 437 237 391Q297 346 327.5 318.0Q358 290 374.5 256.5Q391 223 391 177Q391 93 342.0 42.5Q293 -8 214 -8Q135 -8 86.5 41.5Q38 91 38 171Z"/><path transform="translate(20.012,0) scale(0.014,-0.014)" d="M409 690V627Q409 617 399 617H268Q264 617 264 613V10Q264 0 254 0H178Q168 0 168 10V613Q168 617 164 617H40Q30 617 30 627V690Q30 700 40 700H399Q409 700 409 690Z"/><path transform="translate(30.158,0) scale(0.014,-0.014)" d="M37 64Q37 92 55.0 110.0Q73 128 101 128Q129 128 147.0 110.0Q165 92 165 64Q165 36 147.0 18.0Q129 0 101 0Q73 0 55.0 18.0Q37 36 37 64Z"/><path transform="translate(43.786,0) scale(0.014,-0.014)" d="M152 83H381Q391 83 391 73V10Q391 0 381 0H45Q35 0 35 10V76Q35 84 39 89L70 135Q165 272 217 357Q277 459 277 527Q277 572 256.5 598.5Q236 625 203 625Q170 625 150.0 599.0Q130 573 131 530V490Q131 480 121 480H43Q33 480 33 490V533Q36 612 84.0 660.0Q132 708 207 708Q282 708 328.0 658.0Q374 608 374 526Q374 477 356.5 426.5Q339 376 303 318Q278 278 198 159L149 88Q148 86 149.0 84.5Q150 83 152 83Z"/><path transform="translate(53.596000000000004,0) scale(0.014,-0.014)" d="M44 177V523Q44 608 93.0 659.0Q142 710 223 710Q304 710 353.5 659.0Q403 608 403 523V177Q403 92 353.5 41.0Q304 -10 223 -10Q142 -10 93.0 41.0Q44 92 44 177ZM307 171V529Q307 573 284.0 600.0Q261 627 223 627Q186 627 163.0 600.0Q140 573 140 529V171Q140 127 163.0 100.0Q186 73 223 73Q261 73 284.0 100.0Q307 127 307 171Z"/><path transform="translate(63.854,0) scale(0.014,-0.014)" d="M44 177V523Q44 608 93.0 659.0Q142 710 223 710Q304 710 353.5 659.0Q403 608 403 523V177Q403 92 353.5 41.0Q304 -10 223 -10Q142 -10 93.0 41.0Q44 92 44 177ZM307 171V529Q307 573 284.0 600.0Q261 627 223 627Q186 627 163.0 600.0Q140 573 140 529V171Q140 127 163.0 100.0Q186 73 223 73Q261 73 284.0 100.0Q307 127 307 171Z"/><path transform="translate(74.112,0) scale(0.014,-0.014)" d="M389 215Q389 188 385 146Q379 72 335.0 32.0Q291 -8 217 -8Q149 -8 105.5 29.0Q62 66 52 138Q46 168 46 208L45 534Q45 613 92.0 660.5Q139 708 216 708Q287 708 332.5 660.5Q378 613 378 534V512Q378 502 368 502H292Q282 502 282 512V530Q282 571 263.0 596.5Q244 622 216 622Q183 622 162.5 596.5Q142 571 142 530V420Q142 415 147 418Q176 447 220 447Q288 447 331.0 405.0Q374 363 382 293Q389 255 389 215ZM292 221Q292 252 285 299Q271 364 216 364Q161 364 147 296Q142 264 142 221Q142 182 146 149Q160 75 216 75Q245 75 263.5 95.0Q282 115 288 154Q292 186 292 221Z"/></g></svg>