<?xml version="1.0" encoding="UTF-8"?><svg xmlns="http://www.w3.org/2000/svg" viewBox="0 0 421 240" preserveAspectRatio="xMidYMid meet"><g fill="#F4F1E8" transform="translate(20,187.20000000000002)"><path transform="translate(0,0) scale(0.2,-0.2)" d="M475 700H592Q597 700 600.5 696.5Q604 693 604 688V12Q604 7 600.5 3.5Q597 0 592 0H479Q469 0 465 8L206 436Q204 439 202.0 438.5Q200 438 200 434L202 12Q202 7 198.5 3.5Q195 0 190 0H73Q68 0 64.5 3.5Q61 7 61 12V688Q61 693 64.5 696.5Q68 700 73 700H186Q196 700 200 692L458 266Q460 263 462.0 263.5Q464 264 464 268L463 688Q463 693 466.5 696.5Q470 700 475 700Z"/><path transform="translate(136.0,0) scale(0.2,-0.2)" d="M556 688V590Q556 585 552.5 581.5Q549 578 544 578H365Q360 578 360 573V12Q360 7 356.5 3.5Q353 0 348 0H231Q226 0 222.5 3.5Q219 7 219 12V573Q219 578 214 578H40Q35 578 31.5 581.5Q28 585 28 590V688Q28 693 31.5 696.5Q35 700 40 700H544Q549 700 552.5 696.5Q556 693 556 688Z"/><path transform="translate(256.0,0) scale(0.2,-0.2)" d="M47 235V466Q47 538 79.0 593.0Q111 648 170.0 678.0Q229 708 307 708Q384 708 442.5 679.5Q501 651 533.5 598.5Q566 546 566 477Q566 468 554 466L437 459H435Q425 459 425 470Q425 523 392.5 555.0Q360 587 307 587Q253 587 220.5 555.0Q188 523 188 470V229Q188 177 220.5 145.0Q253 113 307 113Q360 113 392.5 145.0Q425 177 425 229Q425 240 437 240L554 235Q559 235 562.5 232.0Q566 229 566 225Q566 156 533.5 103.0Q501 50 442.5 21.0Q384 -8 307 -8Q229 -8 170.0 22.5Q111 53 79.0 108.0Q47 163 47 235Z"/></g></svg>